<svg xmlns="http://www.w3.org/2000/svg" xmlns:xlink="http://www.w3.org/1999/xlink" width="322.79" height="1020.028" viewBox="0 0 322.79 1020.028">
  <defs>
    <filter id="Caminho_194" x="82" y="1.5" width="89.145" height="89.145" filterUnits="userSpaceOnUse">
      <feOffset dy="3" input="SourceAlpha"/>
      <feGaussianBlur stdDeviation="3" result="blur"/>
      <feFlood flood-opacity="0.161"/>
      <feComposite operator="in" in2="blur"/>
      <feComposite in="SourceGraphic"/>
    </filter>
    <filter id="Caminho_195" x="85.5" y="144.29" width="92.145" height="92.145" filterUnits="userSpaceOnUse">
      <feOffset dx="5" dy="5" input="SourceAlpha"/>
      <feGaussianBlur stdDeviation="3.5" result="blur-2"/>
      <feFlood flood-opacity="0.161"/>
      <feComposite operator="in" in2="blur-2"/>
      <feComposite in="SourceGraphic"/>
    </filter>
    <filter id="Caminho_198" x="82" y="286.079" width="89.145" height="89.145" filterUnits="userSpaceOnUse">
      <feOffset dy="3" input="SourceAlpha"/>
      <feGaussianBlur stdDeviation="3" result="blur-3"/>
      <feFlood flood-opacity="0.161"/>
      <feComposite operator="in" in2="blur-3"/>
      <feComposite in="SourceGraphic"/>
    </filter>
    <filter id="Caminho_200" x="76.355" y="423.869" width="98.145" height="98.145" filterUnits="userSpaceOnUse">
      <feOffset dy="3" input="SourceAlpha"/>
      <feGaussianBlur stdDeviation="4.5" result="blur-4"/>
      <feFlood flood-opacity="0.161"/>
      <feComposite operator="in" in2="blur-4"/>
      <feComposite in="SourceGraphic"/>
    </filter>
    <filter id="Caminho_214" x="149.355" y="921.883" width="98.145" height="98.145" filterUnits="userSpaceOnUse">
      <feOffset dy="3" input="SourceAlpha"/>
      <feGaussianBlur stdDeviation="4.5" result="blur-5"/>
      <feFlood flood-opacity="0.161"/>
      <feComposite operator="in" in2="blur-5"/>
      <feComposite in="SourceGraphic"/>
    </filter>
    <filter id="Caminho_206" x="77.5" y="850.738" width="98.145" height="98.145" filterUnits="userSpaceOnUse">
      <feOffset dy="3" input="SourceAlpha"/>
      <feGaussianBlur stdDeviation="4.5" result="blur-6"/>
      <feFlood flood-opacity="0.161"/>
      <feComposite operator="in" in2="blur-6"/>
      <feComposite in="SourceGraphic"/>
    </filter>
    <filter id="Caminho_205" x="77.5" y="708.448" width="98.145" height="98.145" filterUnits="userSpaceOnUse">
      <feOffset dy="3" input="SourceAlpha"/>
      <feGaussianBlur stdDeviation="4.5" result="blur-7"/>
      <feFlood flood-opacity="0.161"/>
      <feComposite operator="in" in2="blur-7"/>
      <feComposite in="SourceGraphic"/>
    </filter>
    <filter id="Caminho_208" x="77.5" y="915.883" width="98.145" height="98.145" filterUnits="userSpaceOnUse">
      <feOffset dy="-3" input="SourceAlpha"/>
      <feGaussianBlur stdDeviation="4.5" result="blur-8"/>
      <feFlood flood-opacity="0.161"/>
      <feComposite operator="in" in2="blur-8"/>
      <feComposite in="SourceGraphic"/>
    </filter>
    <filter id="Caminho_215" x="152" y="357.224" width="89.145" height="89.145" filterUnits="userSpaceOnUse">
      <feOffset dy="3" input="SourceAlpha"/>
      <feGaussianBlur stdDeviation="3" result="blur-9"/>
      <feFlood flood-opacity="0.161"/>
      <feComposite operator="in" in2="blur-9"/>
      <feComposite in="SourceGraphic"/>
    </filter>
    <filter id="Caminho_197" x="82" y="1.5" width="89.145" height="89.145" filterUnits="userSpaceOnUse">
      <feOffset dy="3" input="SourceAlpha"/>
      <feGaussianBlur stdDeviation="3" result="blur-10"/>
      <feFlood flood-opacity="0.161"/>
      <feComposite operator="in" in2="blur-10"/>
      <feComposite in="SourceGraphic"/>
    </filter>
    <filter id="Caminho_216" x="152" y="499.514" width="89.145" height="89.145" filterUnits="userSpaceOnUse">
      <feOffset dy="3" input="SourceAlpha"/>
      <feGaussianBlur stdDeviation="3" result="blur-11"/>
      <feFlood flood-opacity="0.161"/>
      <feComposite operator="in" in2="blur-11"/>
      <feComposite in="SourceGraphic"/>
    </filter>
    <filter id="Caminho_203" x="80.855" y="570.659" width="89.145" height="89.145" filterUnits="userSpaceOnUse">
      <feOffset dy="3" input="SourceAlpha"/>
      <feGaussianBlur stdDeviation="3" result="blur-12"/>
      <feFlood flood-opacity="0.161"/>
      <feComposite operator="in" in2="blur-12"/>
      <feComposite in="SourceGraphic"/>
    </filter>
    <filter id="Caminho_217" x="153.855" y="784.093" width="89.145" height="89.145" filterUnits="userSpaceOnUse">
      <feOffset dy="3" input="SourceAlpha"/>
      <feGaussianBlur stdDeviation="3" result="blur-13"/>
      <feFlood flood-opacity="0.161"/>
      <feComposite operator="in" in2="blur-13"/>
      <feComposite in="SourceGraphic"/>
    </filter>
    <filter id="Caminho_218" x="152" y="1.5" width="89.145" height="89.145" filterUnits="userSpaceOnUse">
      <feOffset dy="3" input="SourceAlpha"/>
      <feGaussianBlur stdDeviation="3" result="blur-14"/>
      <feFlood flood-opacity="0.161"/>
      <feComposite operator="in" in2="blur-14"/>
      <feComposite in="SourceGraphic"/>
    </filter>
    <filter id="Caminho_219" x="149" y="72.645" width="89.145" height="89.145" filterUnits="userSpaceOnUse">
      <feOffset dx="-3" dy="3" input="SourceAlpha"/>
      <feGaussianBlur stdDeviation="3" result="blur-15"/>
      <feFlood flood-opacity="0.161"/>
      <feComposite operator="in" in2="blur-15"/>
      <feComposite in="SourceGraphic"/>
    </filter>
    <filter id="Caminho_269" x="224.145" y="855.238" width="89.145" height="89.145" filterUnits="userSpaceOnUse">
      <feOffset dy="3" input="SourceAlpha"/>
      <feGaussianBlur stdDeviation="3" result="blur-16"/>
      <feFlood flood-opacity="0.161"/>
      <feComposite operator="in" in2="blur-16"/>
      <feComposite in="SourceGraphic"/>
    </filter>
    <filter id="Caminho_274" x="221.145" y="286.079" width="89.145" height="89.145" filterUnits="userSpaceOnUse">
      <feOffset dx="-3" dy="3" input="SourceAlpha"/>
      <feGaussianBlur stdDeviation="3" result="blur-17"/>
      <feFlood flood-opacity="0.161"/>
      <feComposite operator="in" in2="blur-17"/>
      <feComposite in="SourceGraphic"/>
    </filter>
    <filter id="Caminho_275" x="229.145" y="143.79" width="89.145" height="89.145" filterUnits="userSpaceOnUse">
      <feOffset dx="6" dy="3" input="SourceAlpha"/>
      <feGaussianBlur stdDeviation="3" result="blur-18"/>
      <feFlood flood-opacity="0.161"/>
      <feComposite operator="in" in2="blur-18"/>
      <feComposite in="SourceGraphic"/>
    </filter>
    <filter id="Caminho_350" x="215.645" y="61.145" width="98.145" height="98.145" filterUnits="userSpaceOnUse">
      <feOffset dx="-4" dy="-4" input="SourceAlpha"/>
      <feGaussianBlur stdDeviation="4.5" result="blur-19"/>
      <feFlood flood-opacity="0.161"/>
      <feComposite operator="in" in2="blur-19"/>
      <feComposite in="SourceGraphic"/>
    </filter>
    <filter id="Caminho_276" x="224.645" y="0" width="98.145" height="98.145" filterUnits="userSpaceOnUse">
      <feOffset dx="6" dy="6" input="SourceAlpha"/>
      <feGaussianBlur stdDeviation="4.5" result="blur-20"/>
      <feFlood flood-opacity="0.161"/>
      <feComposite operator="in" in2="blur-20"/>
      <feComposite in="SourceGraphic"/>
    </filter>
    <filter id="Caminho_192" x="9" y="72.645" width="89.145" height="89.145" filterUnits="userSpaceOnUse">
      <feOffset dy="3" input="SourceAlpha"/>
      <feGaussianBlur stdDeviation="3" result="blur-21"/>
      <feFlood flood-opacity="0.161"/>
      <feComposite operator="in" in2="blur-21"/>
      <feComposite in="SourceGraphic"/>
    </filter>
    <filter id="Caminho_196" x="9" y="214.935" width="89.145" height="89.145" filterUnits="userSpaceOnUse">
      <feOffset dy="3" input="SourceAlpha"/>
      <feGaussianBlur stdDeviation="3" result="blur-22"/>
      <feFlood flood-opacity="0.161"/>
      <feComposite operator="in" in2="blur-22"/>
      <feComposite in="SourceGraphic"/>
    </filter>
    <filter id="Caminho_202" x="4.5" y="495.014" width="98.145" height="98.145" filterUnits="userSpaceOnUse">
      <feOffset dy="3" input="SourceAlpha"/>
      <feGaussianBlur stdDeviation="4.5" result="blur-23"/>
      <feFlood flood-opacity="0.161"/>
      <feComposite operator="in" in2="blur-23"/>
      <feComposite in="SourceGraphic"/>
    </filter>
    <filter id="Caminho_204" x="4.5" y="637.304" width="98.145" height="98.145" filterUnits="userSpaceOnUse">
      <feOffset dy="3" input="SourceAlpha"/>
      <feGaussianBlur stdDeviation="4.5" result="blur-24"/>
      <feFlood flood-opacity="0.161"/>
      <feComposite operator="in" in2="blur-24"/>
      <feComposite in="SourceGraphic"/>
    </filter>
    <filter id="Caminho_201" x="4.5" y="417.869" width="98.145" height="98.145" filterUnits="userSpaceOnUse">
      <feOffset dy="-3" input="SourceAlpha"/>
      <feGaussianBlur stdDeviation="4.5" result="blur-25"/>
      <feFlood flood-opacity="0.161"/>
      <feComposite operator="in" in2="blur-25"/>
      <feComposite in="SourceGraphic"/>
    </filter>
    <filter id="Caminho_199" x="0" y="286.079" width="89.145" height="89.145" filterUnits="userSpaceOnUse">
      <feOffset dx="-9" dy="3" input="SourceAlpha"/>
      <feGaussianBlur stdDeviation="3" result="blur-26"/>
      <feFlood flood-opacity="0.161"/>
      <feComposite operator="in" in2="blur-26"/>
      <feComposite in="SourceGraphic"/>
    </filter>
    <filter id="Caminho_207" x="10.145" y="784.094" width="89.145" height="89.145" filterUnits="userSpaceOnUse">
      <feOffset dy="3" input="SourceAlpha"/>
      <feGaussianBlur stdDeviation="3" result="blur-27"/>
      <feFlood flood-opacity="0.161"/>
      <feComposite operator="in" in2="blur-27"/>
      <feComposite in="SourceGraphic"/>
    </filter>
    <filter id="Caminho_193" x="9" y="1.5" width="89.145" height="89.145" filterUnits="userSpaceOnUse">
      <feOffset dy="3" input="SourceAlpha"/>
      <feGaussianBlur stdDeviation="3" result="blur-28"/>
      <feFlood flood-opacity="0.161"/>
      <feComposite operator="in" in2="blur-28"/>
      <feComposite in="SourceGraphic"/>
    </filter>
  </defs>
  <g transform="matrix(1, 0, 0, 1, 0, 0)" filter="url(#Caminho_194)">
    <path id="Caminho_194-2" data-name="Caminho 194" d="M0,0H71.145V71.145H0Z" transform="translate(91 78.64) rotate(-90)" fill="#fff"/>
  </g>
  <g transform="matrix(1, 0, 0, 1, 0, 0)" filter="url(#Caminho_195)">
    <path id="Caminho_195-2" data-name="Caminho 195" d="M0,0H71.145V71.145H0Z" transform="translate(91 220.93) rotate(-90)" fill="#fff"/>
  </g>
  <g transform="matrix(1, 0, 0, 1, 0, 0)" filter="url(#Caminho_198)">
    <path id="Caminho_198-2" data-name="Caminho 198" d="M0,0H71.145V71.145H0Z" transform="translate(91 363.22) rotate(-90)" fill="#fff"/>
  </g>
  <g transform="matrix(1, 0, 0, 1, 0, 0)" filter="url(#Caminho_200)">
    <path id="Caminho_200-2" data-name="Caminho 200" d="M0,0H71.145V71.145H0Z" transform="translate(89.86 505.51) rotate(-90)" fill="#fff"/>
  </g>
  <g transform="matrix(1, 0, 0, 1, 0, 0)" filter="url(#Caminho_214)">
    <path id="Caminho_214-2" data-name="Caminho 214" d="M0,0H71.145V71.145H0Z" transform="translate(234 932.38) rotate(90)" fill="#fff"/>
  </g>
  <g transform="matrix(1, 0, 0, 1, 0, 0)" filter="url(#Caminho_206)">
    <path id="Caminho_206-2" data-name="Caminho 206" d="M0,0H71.145V71.145H0Z" transform="translate(162.14 861.24) rotate(90)" fill="#fff"/>
  </g>
  <g transform="matrix(1, 0, 0, 1, 0, 0)" filter="url(#Caminho_205)">
    <path id="Caminho_205-2" data-name="Caminho 205" d="M0,0H71.145V71.145H0Z" transform="translate(162.14 718.95) rotate(90)" fill="#fff"/>
  </g>
  <g transform="matrix(1, 0, 0, 1, 0, 0)" filter="url(#Caminho_208)">
    <path id="Caminho_208-2" data-name="Caminho 208" d="M0,0H71.145V71.145H0Z" transform="translate(162.14 932.38) rotate(90)" fill="#fff"/>
  </g>
  <g transform="matrix(1, 0, 0, 1, 0, 0)" filter="url(#Caminho_215)">
    <path id="Caminho_215-2" data-name="Caminho 215" d="M0,0H71.145V71.145H0Z" transform="translate(161 434.37) rotate(-90)" fill="#fff"/>
  </g>
  <g transform="matrix(1, 0, 0, 1, 0, 0)" filter="url(#Caminho_197)">
    <path id="Caminho_197-2" data-name="Caminho 197" d="M0,0H71.145V71.145H0Z" transform="translate(91 78.64) rotate(-90)" fill="#fff"/>
  </g>
  <g transform="matrix(1, 0, 0, 1, 0, 0)" filter="url(#Caminho_216)">
    <path id="Caminho_216-2" data-name="Caminho 216" d="M0,0H71.145V71.145H0Z" transform="translate(161 576.66) rotate(-90)" fill="#fff"/>
  </g>
  <g transform="matrix(1, 0, 0, 1, 0, 0)" filter="url(#Caminho_203)">
    <path id="Caminho_203-2" data-name="Caminho 203" d="M0,0H71.145V71.145H0Z" transform="translate(89.86 647.8) rotate(-90)" fill="#fff"/>
  </g>
  <g transform="matrix(1, 0, 0, 1, 0, 0)" filter="url(#Caminho_217)">
    <path id="Caminho_217-2" data-name="Caminho 217" d="M0,0H71.145V71.145H0Z" transform="translate(234 790.09) rotate(90)" fill="#fff"/>
  </g>
  <g transform="matrix(1, 0, 0, 1, 0, 0)" filter="url(#Caminho_218)">
    <path id="Caminho_218-2" data-name="Caminho 218" d="M0,0H71.145V71.145H0Z" transform="translate(161 78.64) rotate(-90)" fill="#fff"/>
  </g>
  <g transform="matrix(1, 0, 0, 1, 0, 0)" filter="url(#Caminho_219)">
    <path id="Caminho_219-2" data-name="Caminho 219" d="M0,0H71.145V71.145H0Z" transform="translate(161 149.79) rotate(-90)" fill="#fff"/>
  </g>
  <g transform="matrix(1, 0, 0, 1, 0, 0)" filter="url(#Caminho_269)">
    <path id="Caminho_269-2" data-name="Caminho 269" d="M0,0H71.145V71.145H0Z" transform="translate(304.29 861.24) rotate(90)" fill="#fff"/>
  </g>
  <g transform="matrix(1, 0, 0, 1, 0, 0)" filter="url(#Caminho_274)">
    <path id="Caminho_274-2" data-name="Caminho 274" d="M0,0H71.145V71.145H0Z" transform="translate(233.15 363.22) rotate(-90)" fill="#fff"/>
  </g>
  <g transform="matrix(1, 0, 0, 1, 0, 0)" filter="url(#Caminho_275)">
    <path id="Caminho_275-2" data-name="Caminho 275" d="M0,0H71.145V71.145H0Z" transform="translate(232.15 220.93) rotate(-90)" fill="#fff"/>
  </g>
  <g transform="matrix(1, 0, 0, 1, 0, 0)" filter="url(#Caminho_350)">
    <path id="Caminho_350-2" data-name="Caminho 350" d="M0,0H71.145V71.145H0Z" transform="translate(233.15 149.79) rotate(-90)" fill="#fff"/>
  </g>
  <g transform="matrix(1, 0, 0, 1, 0, 0)" filter="url(#Caminho_276)">
    <path id="Caminho_276-2" data-name="Caminho 276" d="M0,0H71.145V71.145H0Z" transform="translate(232.15 78.64) rotate(-90)" fill="#fff"/>
  </g>
  <g transform="matrix(1, 0, 0, 1, 0, 0)" filter="url(#Caminho_192)">
    <path id="Caminho_192-2" data-name="Caminho 192" d="M0,0H71.145V71.145H0Z" transform="translate(18 149.79) rotate(-90)" fill="#fff"/>
  </g>
  <g transform="matrix(1, 0, 0, 1, 0, 0)" filter="url(#Caminho_196)">
    <path id="Caminho_196-2" data-name="Caminho 196" d="M0,0H71.145V71.145H0Z" transform="translate(18 292.08) rotate(-90)" fill="#fff"/>
  </g>
  <g transform="matrix(1, 0, 0, 1, 0, 0)" filter="url(#Caminho_202)">
    <path id="Caminho_202-2" data-name="Caminho 202" d="M0,0H71.145V71.145H0Z" transform="translate(18 576.66) rotate(-90)" fill="#fff"/>
  </g>
  <g transform="matrix(1, 0, 0, 1, 0, 0)" filter="url(#Caminho_204)">
    <path id="Caminho_204-2" data-name="Caminho 204" d="M0,0H71.145V71.145H0Z" transform="translate(18 718.95) rotate(-90)" fill="#fff"/>
  </g>
  <g transform="matrix(1, 0, 0, 1, 0, 0)" filter="url(#Caminho_201)">
    <path id="Caminho_201-2" data-name="Caminho 201" d="M0,0H71.145V71.145H0Z" transform="translate(18 505.51) rotate(-90)" fill="#fff"/>
  </g>
  <g transform="matrix(1, 0, 0, 1, 0, 0)" filter="url(#Caminho_199)">
    <path id="Caminho_199-2" data-name="Caminho 199" d="M0,0H71.145V71.145H0Z" transform="translate(18 363.22) rotate(-90)" fill="#fff"/>
  </g>
  <g transform="matrix(1, 0, 0, 1, 0, 0)" filter="url(#Caminho_207)">
    <path id="Caminho_207-2" data-name="Caminho 207" d="M0,0H71.145V71.145H0Z" transform="translate(90.29 790.09) rotate(90)" fill="#fff"/>
  </g>
  <g transform="matrix(1, 0, 0, 1, 0, 0)" filter="url(#Caminho_193)">
    <path id="Caminho_193-2" data-name="Caminho 193" d="M0,0H71.145V71.145H0Z" transform="translate(18 78.64) rotate(-90)" fill="#fff"/>
  </g>
</svg>
