<svg xmlns="http://www.w3.org/2000/svg" xmlns:xlink="http://www.w3.org/1999/xlink" width="1951.5" height="948.883" viewBox="0 0 1951.5 948.883">
  <defs>
    <filter id="Caminho_33" x="1784.855" y="1.5" width="89.145" height="89.145" filterUnits="userSpaceOnUse">
      <feOffset dy="3" input="SourceAlpha"/>
      <feGaussianBlur stdDeviation="3" result="blur"/>
      <feFlood flood-opacity="0.161"/>
      <feComposite operator="in" in2="blur"/>
      <feComposite in="SourceGraphic"/>
    </filter>
    <filter id="Caminho_194" x="82" y="1.5" width="89.145" height="89.145" filterUnits="userSpaceOnUse">
      <feOffset dy="3" input="SourceAlpha"/>
      <feGaussianBlur stdDeviation="3" result="blur-2"/>
      <feFlood flood-opacity="0.161"/>
      <feComposite operator="in" in2="blur-2"/>
      <feComposite in="SourceGraphic"/>
    </filter>
    <filter id="Caminho_34" x="1857.855" y="72.645" width="89.145" height="89.145" filterUnits="userSpaceOnUse">
      <feOffset dy="3" input="SourceAlpha"/>
      <feGaussianBlur stdDeviation="3" result="blur-3"/>
      <feFlood flood-opacity="0.161"/>
      <feComposite operator="in" in2="blur-3"/>
      <feComposite in="SourceGraphic"/>
    </filter>
    <filter id="Caminho_35" x="1788.355" y="144.29" width="92.145" height="92.145" filterUnits="userSpaceOnUse">
      <feOffset dx="5" dy="5" input="SourceAlpha"/>
      <feGaussianBlur stdDeviation="3.5" result="blur-4"/>
      <feFlood flood-opacity="0.161"/>
      <feComposite operator="in" in2="blur-4"/>
      <feComposite in="SourceGraphic"/>
    </filter>
    <filter id="Caminho_195" x="85.5" y="144.29" width="92.145" height="92.145" filterUnits="userSpaceOnUse">
      <feOffset dx="5" dy="5" input="SourceAlpha"/>
      <feGaussianBlur stdDeviation="3.5" result="blur-5"/>
      <feFlood flood-opacity="0.161"/>
      <feComposite operator="in" in2="blur-5"/>
      <feComposite in="SourceGraphic"/>
    </filter>
    <filter id="Caminho_36" x="1857.855" y="214.935" width="89.145" height="89.145" filterUnits="userSpaceOnUse">
      <feOffset dy="3" input="SourceAlpha"/>
      <feGaussianBlur stdDeviation="3" result="blur-6"/>
      <feFlood flood-opacity="0.161"/>
      <feComposite operator="in" in2="blur-6"/>
      <feComposite in="SourceGraphic"/>
    </filter>
    <filter id="Caminho_37" x="1784.855" y="286.079" width="89.145" height="89.145" filterUnits="userSpaceOnUse">
      <feOffset dy="3" input="SourceAlpha"/>
      <feGaussianBlur stdDeviation="3" result="blur-7"/>
      <feFlood flood-opacity="0.161"/>
      <feComposite operator="in" in2="blur-7"/>
      <feComposite in="SourceGraphic"/>
    </filter>
    <filter id="Caminho_198" x="82" y="286.079" width="89.145" height="89.145" filterUnits="userSpaceOnUse">
      <feOffset dy="3" input="SourceAlpha"/>
      <feGaussianBlur stdDeviation="3" result="blur-8"/>
      <feFlood flood-opacity="0.161"/>
      <feComposite operator="in" in2="blur-8"/>
      <feComposite in="SourceGraphic"/>
    </filter>
    <filter id="Caminho_43" x="1781.5" y="423.869" width="98.145" height="98.145" filterUnits="userSpaceOnUse">
      <feOffset dy="3" input="SourceAlpha"/>
      <feGaussianBlur stdDeviation="4.5" result="blur-9"/>
      <feFlood flood-opacity="0.161"/>
      <feComposite operator="in" in2="blur-9"/>
      <feComposite in="SourceGraphic"/>
    </filter>
    <filter id="Caminho_200" x="76.355" y="423.869" width="98.145" height="98.145" filterUnits="userSpaceOnUse">
      <feOffset dy="3" input="SourceAlpha"/>
      <feGaussianBlur stdDeviation="4.5" result="blur-10"/>
      <feFlood flood-opacity="0.161"/>
      <feComposite operator="in" in2="blur-10"/>
      <feComposite in="SourceGraphic"/>
    </filter>
    <filter id="Caminho_53" x="1853.355" y="495.014" width="98.145" height="98.145" filterUnits="userSpaceOnUse">
      <feOffset dy="3" input="SourceAlpha"/>
      <feGaussianBlur stdDeviation="4.5" result="blur-11"/>
      <feFlood flood-opacity="0.161"/>
      <feComposite operator="in" in2="blur-11"/>
      <feComposite in="SourceGraphic"/>
    </filter>
    <filter id="Caminho_71" x="1780.355" y="850.738" width="98.145" height="98.145" filterUnits="userSpaceOnUse">
      <feOffset dy="3" input="SourceAlpha"/>
      <feGaussianBlur stdDeviation="4.5" result="blur-12"/>
      <feFlood flood-opacity="0.161"/>
      <feComposite operator="in" in2="blur-12"/>
      <feComposite in="SourceGraphic"/>
    </filter>
    <filter id="Caminho_206" x="77.5" y="850.738" width="98.145" height="98.145" filterUnits="userSpaceOnUse">
      <feOffset dy="3" input="SourceAlpha"/>
      <feGaussianBlur stdDeviation="4.5" result="blur-13"/>
      <feFlood flood-opacity="0.161"/>
      <feComposite operator="in" in2="blur-13"/>
      <feComposite in="SourceGraphic"/>
    </filter>
    <filter id="Caminho_52" x="1853.355" y="637.304" width="98.145" height="98.145" filterUnits="userSpaceOnUse">
      <feOffset dy="3" input="SourceAlpha"/>
      <feGaussianBlur stdDeviation="4.5" result="blur-14"/>
      <feFlood flood-opacity="0.161"/>
      <feComposite operator="in" in2="blur-14"/>
      <feComposite in="SourceGraphic"/>
    </filter>
    <filter id="Caminho_74" x="1780.355" y="708.448" width="98.145" height="98.145" filterUnits="userSpaceOnUse">
      <feOffset dy="3" input="SourceAlpha"/>
      <feGaussianBlur stdDeviation="4.5" result="blur-15"/>
      <feFlood flood-opacity="0.161"/>
      <feComposite operator="in" in2="blur-15"/>
      <feComposite in="SourceGraphic"/>
    </filter>
    <filter id="Caminho_205" x="77.5" y="708.448" width="98.145" height="98.145" filterUnits="userSpaceOnUse">
      <feOffset dy="3" input="SourceAlpha"/>
      <feGaussianBlur stdDeviation="4.5" result="blur-16"/>
      <feFlood flood-opacity="0.161"/>
      <feComposite operator="in" in2="blur-16"/>
      <feComposite in="SourceGraphic"/>
    </filter>
    <filter id="Caminho_47" x="1853.355" y="417.869" width="98.145" height="98.145" filterUnits="userSpaceOnUse">
      <feOffset dy="-3" input="SourceAlpha"/>
      <feGaussianBlur stdDeviation="4.5" result="blur-17"/>
      <feFlood flood-opacity="0.161"/>
      <feComposite operator="in" in2="blur-17"/>
      <feComposite in="SourceGraphic"/>
    </filter>
    <filter id="Caminho_44" x="1848.855" y="286.079" width="89.145" height="89.145" filterUnits="userSpaceOnUse">
      <feOffset dx="-9" dy="3" input="SourceAlpha"/>
      <feGaussianBlur stdDeviation="3" result="blur-18"/>
      <feFlood flood-opacity="0.161"/>
      <feComposite operator="in" in2="blur-18"/>
      <feComposite in="SourceGraphic"/>
    </filter>
    <filter id="Caminho_40" x="1714.855" y="357.224" width="89.145" height="89.145" filterUnits="userSpaceOnUse">
      <feOffset dy="3" input="SourceAlpha"/>
      <feGaussianBlur stdDeviation="3" result="blur-19"/>
      <feFlood flood-opacity="0.161"/>
      <feComposite operator="in" in2="blur-19"/>
      <feComposite in="SourceGraphic"/>
    </filter>
    <filter id="Caminho_215" x="152" y="357.224" width="89.145" height="89.145" filterUnits="userSpaceOnUse">
      <feOffset dy="3" input="SourceAlpha"/>
      <feGaussianBlur stdDeviation="3" result="blur-20"/>
      <feFlood flood-opacity="0.161"/>
      <feComposite operator="in" in2="blur-20"/>
      <feComposite in="SourceGraphic"/>
    </filter>
    <filter id="Caminho_38" x="1784.855" y="1.5" width="89.145" height="89.145" filterUnits="userSpaceOnUse">
      <feOffset dy="3" input="SourceAlpha"/>
      <feGaussianBlur stdDeviation="3" result="blur-21"/>
      <feFlood flood-opacity="0.161"/>
      <feComposite operator="in" in2="blur-21"/>
      <feComposite in="SourceGraphic"/>
    </filter>
    <filter id="Caminho_197" x="82" y="1.5" width="89.145" height="89.145" filterUnits="userSpaceOnUse">
      <feOffset dy="3" input="SourceAlpha"/>
      <feGaussianBlur stdDeviation="3" result="blur-22"/>
      <feFlood flood-opacity="0.161"/>
      <feComposite operator="in" in2="blur-22"/>
      <feComposite in="SourceGraphic"/>
    </filter>
    <filter id="Caminho_50" x="1714.855" y="499.514" width="89.145" height="89.145" filterUnits="userSpaceOnUse">
      <feOffset dy="3" input="SourceAlpha"/>
      <feGaussianBlur stdDeviation="3" result="blur-23"/>
      <feFlood flood-opacity="0.161"/>
      <feComposite operator="in" in2="blur-23"/>
      <feComposite in="SourceGraphic"/>
    </filter>
    <filter id="Caminho_216" x="152" y="499.514" width="89.145" height="89.145" filterUnits="userSpaceOnUse">
      <feOffset dy="3" input="SourceAlpha"/>
      <feGaussianBlur stdDeviation="3" result="blur-24"/>
      <feFlood flood-opacity="0.161"/>
      <feComposite operator="in" in2="blur-24"/>
      <feComposite in="SourceGraphic"/>
    </filter>
    <filter id="Caminho_72" x="1641.855" y="855.238" width="89.145" height="89.145" filterUnits="userSpaceOnUse">
      <feOffset dy="3" input="SourceAlpha"/>
      <feGaussianBlur stdDeviation="3" result="blur-25"/>
      <feFlood flood-opacity="0.161"/>
      <feComposite operator="in" in2="blur-25"/>
      <feComposite in="SourceGraphic"/>
    </filter>
    <filter id="Caminho_75" x="1856.71" y="784.094" width="89.145" height="89.145" filterUnits="userSpaceOnUse">
      <feOffset dy="3" input="SourceAlpha"/>
      <feGaussianBlur stdDeviation="3" result="blur-26"/>
      <feFlood flood-opacity="0.161"/>
      <feComposite operator="in" in2="blur-26"/>
      <feComposite in="SourceGraphic"/>
    </filter>
    <filter id="Caminho_51" x="1786" y="570.659" width="89.145" height="89.145" filterUnits="userSpaceOnUse">
      <feOffset dy="3" input="SourceAlpha"/>
      <feGaussianBlur stdDeviation="3" result="blur-27"/>
      <feFlood flood-opacity="0.161"/>
      <feComposite operator="in" in2="blur-27"/>
      <feComposite in="SourceGraphic"/>
    </filter>
    <filter id="Caminho_203" x="80.855" y="570.659" width="89.145" height="89.145" filterUnits="userSpaceOnUse">
      <feOffset dy="3" input="SourceAlpha"/>
      <feGaussianBlur stdDeviation="3" result="blur-28"/>
      <feFlood flood-opacity="0.161"/>
      <feComposite operator="in" in2="blur-28"/>
      <feComposite in="SourceGraphic"/>
    </filter>
    <filter id="Caminho_73" x="1713" y="784.093" width="89.145" height="89.145" filterUnits="userSpaceOnUse">
      <feOffset dy="3" input="SourceAlpha"/>
      <feGaussianBlur stdDeviation="3" result="blur-29"/>
      <feFlood flood-opacity="0.161"/>
      <feComposite operator="in" in2="blur-29"/>
      <feComposite in="SourceGraphic"/>
    </filter>
    <filter id="Caminho_217" x="153.855" y="784.093" width="89.145" height="89.145" filterUnits="userSpaceOnUse">
      <feOffset dy="3" input="SourceAlpha"/>
      <feGaussianBlur stdDeviation="3" result="blur-30"/>
      <feFlood flood-opacity="0.161"/>
      <feComposite operator="in" in2="blur-30"/>
      <feComposite in="SourceGraphic"/>
    </filter>
    <filter id="Caminho_41" x="1714.855" y="1.5" width="89.145" height="89.145" filterUnits="userSpaceOnUse">
      <feOffset dy="3" input="SourceAlpha"/>
      <feGaussianBlur stdDeviation="3" result="blur-31"/>
      <feFlood flood-opacity="0.161"/>
      <feComposite operator="in" in2="blur-31"/>
      <feComposite in="SourceGraphic"/>
    </filter>
    <filter id="Caminho_218" x="152" y="1.5" width="89.145" height="89.145" filterUnits="userSpaceOnUse">
      <feOffset dy="3" input="SourceAlpha"/>
      <feGaussianBlur stdDeviation="3" result="blur-32"/>
      <feFlood flood-opacity="0.161"/>
      <feComposite operator="in" in2="blur-32"/>
      <feComposite in="SourceGraphic"/>
    </filter>
    <filter id="Caminho_42" x="1711.855" y="72.645" width="89.145" height="89.145" filterUnits="userSpaceOnUse">
      <feOffset dx="-3" dy="3" input="SourceAlpha"/>
      <feGaussianBlur stdDeviation="3" result="blur-33"/>
      <feFlood flood-opacity="0.161"/>
      <feComposite operator="in" in2="blur-33"/>
      <feComposite in="SourceGraphic"/>
    </filter>
    <filter id="Caminho_219" x="149" y="72.645" width="89.145" height="89.145" filterUnits="userSpaceOnUse">
      <feOffset dx="-3" dy="3" input="SourceAlpha"/>
      <feGaussianBlur stdDeviation="3" result="blur-34"/>
      <feFlood flood-opacity="0.161"/>
      <feComposite operator="in" in2="blur-34"/>
      <feComposite in="SourceGraphic"/>
    </filter>
    <filter id="Caminho_49" x="1638.855" y="286.079" width="89.145" height="89.145" filterUnits="userSpaceOnUse">
      <feOffset dx="-3" dy="3" input="SourceAlpha"/>
      <feGaussianBlur stdDeviation="3" result="blur-35"/>
      <feFlood flood-opacity="0.161"/>
      <feComposite operator="in" in2="blur-35"/>
      <feComposite in="SourceGraphic"/>
    </filter>
    <filter id="Caminho_45" x="1649.71" y="143.79" width="89.145" height="89.145" filterUnits="userSpaceOnUse">
      <feOffset dx="6" dy="3" input="SourceAlpha"/>
      <feGaussianBlur stdDeviation="3" result="blur-36"/>
      <feFlood flood-opacity="0.161"/>
      <feComposite operator="in" in2="blur-36"/>
      <feComposite in="SourceGraphic"/>
    </filter>
    <filter id="Caminho_48" x="1562.21" y="61.145" width="98.145" height="98.145" filterUnits="userSpaceOnUse">
      <feOffset dx="-4" dy="-4" input="SourceAlpha"/>
      <feGaussianBlur stdDeviation="4.5" result="blur-37"/>
      <feFlood flood-opacity="0.161"/>
      <feComposite operator="in" in2="blur-37"/>
      <feComposite in="SourceGraphic"/>
    </filter>
    <filter id="Caminho_46" x="1645.21" y="0" width="98.145" height="98.145" filterUnits="userSpaceOnUse">
      <feOffset dx="6" dy="6" input="SourceAlpha"/>
      <feGaussianBlur stdDeviation="4.5" result="blur-38"/>
      <feFlood flood-opacity="0.161"/>
      <feComposite operator="in" in2="blur-38"/>
      <feComposite in="SourceGraphic"/>
    </filter>
    <filter id="Caminho_39" x="1857.855" y="1.5" width="89.145" height="89.145" filterUnits="userSpaceOnUse">
      <feOffset dy="3" input="SourceAlpha"/>
      <feGaussianBlur stdDeviation="3" result="blur-39"/>
      <feFlood flood-opacity="0.161"/>
      <feComposite operator="in" in2="blur-39"/>
      <feComposite in="SourceGraphic"/>
    </filter>
    <filter id="Caminho_269" x="224.145" y="855.238" width="89.145" height="89.145" filterUnits="userSpaceOnUse">
      <feOffset dy="3" input="SourceAlpha"/>
      <feGaussianBlur stdDeviation="3" result="blur-40"/>
      <feFlood flood-opacity="0.161"/>
      <feComposite operator="in" in2="blur-40"/>
      <feComposite in="SourceGraphic"/>
    </filter>
    <filter id="Caminho_274" x="221.145" y="286.079" width="89.145" height="89.145" filterUnits="userSpaceOnUse">
      <feOffset dx="-3" dy="3" input="SourceAlpha"/>
      <feGaussianBlur stdDeviation="3" result="blur-41"/>
      <feFlood flood-opacity="0.161"/>
      <feComposite operator="in" in2="blur-41"/>
      <feComposite in="SourceGraphic"/>
    </filter>
    <filter id="Caminho_275" x="229.145" y="143.79" width="89.145" height="89.145" filterUnits="userSpaceOnUse">
      <feOffset dx="6" dy="3" input="SourceAlpha"/>
      <feGaussianBlur stdDeviation="3" result="blur-42"/>
      <feFlood flood-opacity="0.161"/>
      <feComposite operator="in" in2="blur-42"/>
      <feComposite in="SourceGraphic"/>
    </filter>
    <filter id="Caminho_350" x="215.645" y="61.145" width="98.145" height="98.145" filterUnits="userSpaceOnUse">
      <feOffset dx="-4" dy="-4" input="SourceAlpha"/>
      <feGaussianBlur stdDeviation="4.5" result="blur-43"/>
      <feFlood flood-opacity="0.161"/>
      <feComposite operator="in" in2="blur-43"/>
      <feComposite in="SourceGraphic"/>
    </filter>
    <filter id="Caminho_276" x="224.645" y="0" width="98.145" height="98.145" filterUnits="userSpaceOnUse">
      <feOffset dx="6" dy="6" input="SourceAlpha"/>
      <feGaussianBlur stdDeviation="4.5" result="blur-44"/>
      <feFlood flood-opacity="0.161"/>
      <feComposite operator="in" in2="blur-44"/>
      <feComposite in="SourceGraphic"/>
    </filter>
    <filter id="Caminho_192" x="9" y="72.645" width="89.145" height="89.145" filterUnits="userSpaceOnUse">
      <feOffset dy="3" input="SourceAlpha"/>
      <feGaussianBlur stdDeviation="3" result="blur-45"/>
      <feFlood flood-opacity="0.161"/>
      <feComposite operator="in" in2="blur-45"/>
      <feComposite in="SourceGraphic"/>
    </filter>
    <filter id="Caminho_196" x="9" y="214.935" width="89.145" height="89.145" filterUnits="userSpaceOnUse">
      <feOffset dy="3" input="SourceAlpha"/>
      <feGaussianBlur stdDeviation="3" result="blur-46"/>
      <feFlood flood-opacity="0.161"/>
      <feComposite operator="in" in2="blur-46"/>
      <feComposite in="SourceGraphic"/>
    </filter>
    <filter id="Caminho_202" x="4.5" y="495.014" width="98.145" height="98.145" filterUnits="userSpaceOnUse">
      <feOffset dy="3" input="SourceAlpha"/>
      <feGaussianBlur stdDeviation="4.5" result="blur-47"/>
      <feFlood flood-opacity="0.161"/>
      <feComposite operator="in" in2="blur-47"/>
      <feComposite in="SourceGraphic"/>
    </filter>
    <filter id="Caminho_204" x="4.5" y="637.304" width="98.145" height="98.145" filterUnits="userSpaceOnUse">
      <feOffset dy="3" input="SourceAlpha"/>
      <feGaussianBlur stdDeviation="4.5" result="blur-48"/>
      <feFlood flood-opacity="0.161"/>
      <feComposite operator="in" in2="blur-48"/>
      <feComposite in="SourceGraphic"/>
    </filter>
    <filter id="Caminho_201" x="4.5" y="417.869" width="98.145" height="98.145" filterUnits="userSpaceOnUse">
      <feOffset dy="-3" input="SourceAlpha"/>
      <feGaussianBlur stdDeviation="4.5" result="blur-49"/>
      <feFlood flood-opacity="0.161"/>
      <feComposite operator="in" in2="blur-49"/>
      <feComposite in="SourceGraphic"/>
    </filter>
    <filter id="Caminho_199" x="0" y="286.079" width="89.145" height="89.145" filterUnits="userSpaceOnUse">
      <feOffset dx="-9" dy="3" input="SourceAlpha"/>
      <feGaussianBlur stdDeviation="3" result="blur-50"/>
      <feFlood flood-opacity="0.161"/>
      <feComposite operator="in" in2="blur-50"/>
      <feComposite in="SourceGraphic"/>
    </filter>
    <filter id="Caminho_207" x="10.145" y="784.094" width="89.145" height="89.145" filterUnits="userSpaceOnUse">
      <feOffset dy="3" input="SourceAlpha"/>
      <feGaussianBlur stdDeviation="3" result="blur-51"/>
      <feFlood flood-opacity="0.161"/>
      <feComposite operator="in" in2="blur-51"/>
      <feComposite in="SourceGraphic"/>
    </filter>
    <filter id="Caminho_193" x="9" y="1.5" width="89.145" height="89.145" filterUnits="userSpaceOnUse">
      <feOffset dy="3" input="SourceAlpha"/>
      <feGaussianBlur stdDeviation="3" result="blur-52"/>
      <feFlood flood-opacity="0.161"/>
      <feComposite operator="in" in2="blur-52"/>
      <feComposite in="SourceGraphic"/>
    </filter>
  </defs>
  <g transform="matrix(1, 0, 0, 1, 0, 0)" filter="url(#Caminho_33)">
    <path id="Caminho_33-2" data-name="Caminho 33" d="M0,0H71.145V71.145H0Z" transform="translate(1793.85 78.64) rotate(-90)" fill="#fff"/>
  </g>
  <g transform="matrix(1, 0, 0, 1, 0, 0)" filter="url(#Caminho_194)">
    <path id="Caminho_194-2" data-name="Caminho 194" d="M0,0H71.145V71.145H0Z" transform="translate(91 78.64) rotate(-90)" fill="#fff"/>
  </g>
  <g transform="matrix(1, 0, 0, 1, 0, 0)" filter="url(#Caminho_34)">
    <path id="Caminho_34-2" data-name="Caminho 34" d="M0,0H71.145V71.145H0Z" transform="translate(1866.85 149.79) rotate(-90)" fill="#fff"/>
  </g>
  <g transform="matrix(1, 0, 0, 1, 0, 0)" filter="url(#Caminho_35)">
    <path id="Caminho_35-2" data-name="Caminho 35" d="M0,0H71.145V71.145H0Z" transform="translate(1793.85 220.93) rotate(-90)" fill="#fff"/>
  </g>
  <g transform="matrix(1, 0, 0, 1, 0, 0)" filter="url(#Caminho_195)">
    <path id="Caminho_195-2" data-name="Caminho 195" d="M0,0H71.145V71.145H0Z" transform="translate(91 220.93) rotate(-90)" fill="#fff"/>
  </g>
  <g transform="matrix(1, 0, 0, 1, 0, 0)" filter="url(#Caminho_36)">
    <path id="Caminho_36-2" data-name="Caminho 36" d="M0,0H71.145V71.145H0Z" transform="translate(1866.85 292.08) rotate(-90)" fill="#fff"/>
  </g>
  <g transform="matrix(1, 0, 0, 1, 0, 0)" filter="url(#Caminho_37)">
    <path id="Caminho_37-2" data-name="Caminho 37" d="M0,0H71.145V71.145H0Z" transform="translate(1793.85 363.22) rotate(-90)" fill="#fff"/>
  </g>
  <g transform="matrix(1, 0, 0, 1, 0, 0)" filter="url(#Caminho_198)">
    <path id="Caminho_198-2" data-name="Caminho 198" d="M0,0H71.145V71.145H0Z" transform="translate(91 363.22) rotate(-90)" fill="#fff"/>
  </g>
  <g transform="matrix(1, 0, 0, 1, 0, 0)" filter="url(#Caminho_43)">
    <path id="Caminho_43-2" data-name="Caminho 43" d="M0,0H71.145V71.145H0Z" transform="translate(1795 505.51) rotate(-90)" fill="#fff"/>
  </g>
  <g transform="matrix(1, 0, 0, 1, 0, 0)" filter="url(#Caminho_200)">
    <path id="Caminho_200-2" data-name="Caminho 200" d="M0,0H71.145V71.145H0Z" transform="translate(89.86 505.51) rotate(-90)" fill="#fff"/>
  </g>
  <g transform="matrix(1, 0, 0, 1, 0, 0)" filter="url(#Caminho_53)">
    <path id="Caminho_53-2" data-name="Caminho 53" d="M0,0H71.145V71.145H0Z" transform="translate(1866.85 576.66) rotate(-90)" fill="#fff"/>
  </g>
  <g transform="matrix(1, 0, 0, 1, 0, 0)" filter="url(#Caminho_71)">
    <path id="Caminho_71-2" data-name="Caminho 71" d="M0,0H71.145V71.145H0Z" transform="translate(1865 861.24) rotate(90)" fill="#fff"/>
  </g>
  <g transform="matrix(1, 0, 0, 1, 0, 0)" filter="url(#Caminho_206)">
    <path id="Caminho_206-2" data-name="Caminho 206" d="M0,0H71.145V71.145H0Z" transform="translate(162.14 861.24) rotate(90)" fill="#fff"/>
  </g>
  <g transform="matrix(1, 0, 0, 1, 0, 0)" filter="url(#Caminho_52)">
    <path id="Caminho_52-2" data-name="Caminho 52" d="M0,0H71.145V71.145H0Z" transform="translate(1866.85 718.95) rotate(-90)" fill="#fff"/>
  </g>
  <g transform="matrix(1, 0, 0, 1, 0, 0)" filter="url(#Caminho_74)">
    <path id="Caminho_74-2" data-name="Caminho 74" d="M0,0H71.145V71.145H0Z" transform="translate(1865 718.95) rotate(90)" fill="#fff"/>
  </g>
  <g transform="matrix(1, 0, 0, 1, 0, 0)" filter="url(#Caminho_205)">
    <path id="Caminho_205-2" data-name="Caminho 205" d="M0,0H71.145V71.145H0Z" transform="translate(162.14 718.95) rotate(90)" fill="#fff"/>
  </g>
  <g transform="matrix(1, 0, 0, 1, 0, 0)" filter="url(#Caminho_47)">
    <path id="Caminho_47-2" data-name="Caminho 47" d="M0,0H71.145V71.145H0Z" transform="translate(1866.85 505.51) rotate(-90)" fill="#fff"/>
  </g>
  <g transform="matrix(1, 0, 0, 1, 0, 0)" filter="url(#Caminho_44)">
    <path id="Caminho_44-2" data-name="Caminho 44" d="M0,0H71.145V71.145H0Z" transform="translate(1866.85 363.22) rotate(-90)" fill="#fff"/>
  </g>
  <g transform="matrix(1, 0, 0, 1, 0, 0)" filter="url(#Caminho_40)">
    <path id="Caminho_40-2" data-name="Caminho 40" d="M0,0H71.145V71.145H0Z" transform="translate(1723.85 434.37) rotate(-90)" fill="#fff"/>
  </g>
  <g transform="matrix(1, 0, 0, 1, 0, 0)" filter="url(#Caminho_215)">
    <path id="Caminho_215-2" data-name="Caminho 215" d="M0,0H71.145V71.145H0Z" transform="translate(161 434.37) rotate(-90)" fill="#fff"/>
  </g>
  <g transform="matrix(1, 0, 0, 1, 0, 0)" filter="url(#Caminho_38)">
    <path id="Caminho_38-2" data-name="Caminho 38" d="M0,0H71.145V71.145H0Z" transform="translate(1793.85 78.64) rotate(-90)" fill="#fff"/>
  </g>
  <g transform="matrix(1, 0, 0, 1, 0, 0)" filter="url(#Caminho_197)">
    <path id="Caminho_197-2" data-name="Caminho 197" d="M0,0H71.145V71.145H0Z" transform="translate(91 78.64) rotate(-90)" fill="#fff"/>
  </g>
  <g transform="matrix(1, 0, 0, 1, 0, 0)" filter="url(#Caminho_50)">
    <path id="Caminho_50-2" data-name="Caminho 50" d="M0,0H71.145V71.145H0Z" transform="translate(1723.85 576.66) rotate(-90)" fill="#fff"/>
  </g>
  <g transform="matrix(1, 0, 0, 1, 0, 0)" filter="url(#Caminho_216)">
    <path id="Caminho_216-2" data-name="Caminho 216" d="M0,0H71.145V71.145H0Z" transform="translate(161 576.66) rotate(-90)" fill="#fff"/>
  </g>
  <g transform="matrix(1, 0, 0, 1, 0, 0)" filter="url(#Caminho_72)">
    <path id="Caminho_72-2" data-name="Caminho 72" d="M0,0H71.145V71.145H0Z" transform="translate(1722 861.24) rotate(90)" fill="#fff"/>
  </g>
  <g transform="matrix(1, 0, 0, 1, 0, 0)" filter="url(#Caminho_75)">
    <path id="Caminho_75-2" data-name="Caminho 75" d="M0,0H71.145V71.145H0Z" transform="translate(1936.85 790.09) rotate(90)" fill="#fff"/>
  </g>
  <g transform="matrix(1, 0, 0, 1, 0, 0)" filter="url(#Caminho_51)">
    <path id="Caminho_51-2" data-name="Caminho 51" d="M0,0H71.145V71.145H0Z" transform="translate(1795 647.8) rotate(-90)" fill="#fff"/>
  </g>
  <g transform="matrix(1, 0, 0, 1, 0, 0)" filter="url(#Caminho_203)">
    <path id="Caminho_203-2" data-name="Caminho 203" d="M0,0H71.145V71.145H0Z" transform="translate(89.86 647.8) rotate(-90)" fill="#fff"/>
  </g>
  <g transform="matrix(1, 0, 0, 1, 0, 0)" filter="url(#Caminho_73)">
    <path id="Caminho_73-2" data-name="Caminho 73" d="M0,0H71.145V71.145H0Z" transform="translate(1793.15 790.09) rotate(90)" fill="#fff"/>
  </g>
  <g transform="matrix(1, 0, 0, 1, 0, 0)" filter="url(#Caminho_217)">
    <path id="Caminho_217-2" data-name="Caminho 217" d="M0,0H71.145V71.145H0Z" transform="translate(234 790.09) rotate(90)" fill="#fff"/>
  </g>
  <g transform="matrix(1, 0, 0, 1, 0, 0)" filter="url(#Caminho_41)">
    <path id="Caminho_41-2" data-name="Caminho 41" d="M0,0H71.145V71.145H0Z" transform="translate(1723.85 78.64) rotate(-90)" fill="#fff"/>
  </g>
  <g transform="matrix(1, 0, 0, 1, 0, 0)" filter="url(#Caminho_218)">
    <path id="Caminho_218-2" data-name="Caminho 218" d="M0,0H71.145V71.145H0Z" transform="translate(161 78.64) rotate(-90)" fill="#fff"/>
  </g>
  <g transform="matrix(1, 0, 0, 1, 0, 0)" filter="url(#Caminho_42)">
    <path id="Caminho_42-2" data-name="Caminho 42" d="M0,0H71.145V71.145H0Z" transform="translate(1723.85 149.79) rotate(-90)" fill="#fff"/>
  </g>
  <g transform="matrix(1, 0, 0, 1, 0, 0)" filter="url(#Caminho_219)">
    <path id="Caminho_219-2" data-name="Caminho 219" d="M0,0H71.145V71.145H0Z" transform="translate(161 149.79) rotate(-90)" fill="#fff"/>
  </g>
  <g transform="matrix(1, 0, 0, 1, 0, 0)" filter="url(#Caminho_49)">
    <path id="Caminho_49-2" data-name="Caminho 49" d="M0,0H71.145V71.145H0Z" transform="translate(1650.85 363.22) rotate(-90)" fill="#fff"/>
  </g>
  <g transform="matrix(1, 0, 0, 1, 0, 0)" filter="url(#Caminho_45)">
    <path id="Caminho_45-2" data-name="Caminho 45" d="M0,0H71.145V71.145H0Z" transform="translate(1652.71 220.93) rotate(-90)" fill="#fff"/>
  </g>
  <g transform="matrix(1, 0, 0, 1, 0, 0)" filter="url(#Caminho_48)">
    <path id="Caminho_48-2" data-name="Caminho 48" d="M0,0H71.145V71.145H0Z" transform="translate(1579.71 149.79) rotate(-90)" fill="#fff"/>
  </g>
  <g transform="matrix(1, 0, 0, 1, 0, 0)" filter="url(#Caminho_46)">
    <path id="Caminho_46-2" data-name="Caminho 46" d="M0,0H71.145V71.145H0Z" transform="translate(1652.71 78.64) rotate(-90)" fill="#fff"/>
  </g>
  <g transform="matrix(1, 0, 0, 1, 0, 0)" filter="url(#Caminho_39)">
    <path id="Caminho_39-2" data-name="Caminho 39" d="M0,0H71.145V71.145H0Z" transform="translate(1866.85 78.64) rotate(-90)" fill="#fff"/>
  </g>
  <g transform="matrix(1, 0, 0, 1, 0, 0)" filter="url(#Caminho_269)">
    <path id="Caminho_269-2" data-name="Caminho 269" d="M0,0H71.145V71.145H0Z" transform="translate(304.29 861.24) rotate(90)" fill="#fff"/>
  </g>
  <g transform="matrix(1, 0, 0, 1, 0, 0)" filter="url(#Caminho_274)">
    <path id="Caminho_274-2" data-name="Caminho 274" d="M0,0H71.145V71.145H0Z" transform="translate(233.15 363.22) rotate(-90)" fill="#fff"/>
  </g>
  <g transform="matrix(1, 0, 0, 1, 0, 0)" filter="url(#Caminho_275)">
    <path id="Caminho_275-2" data-name="Caminho 275" d="M0,0H71.145V71.145H0Z" transform="translate(232.15 220.93) rotate(-90)" fill="#fff"/>
  </g>
  <g transform="matrix(1, 0, 0, 1, 0, 0)" filter="url(#Caminho_350)">
    <path id="Caminho_350-2" data-name="Caminho 350" d="M0,0H71.145V71.145H0Z" transform="translate(233.15 149.79) rotate(-90)" fill="#fff"/>
  </g>
  <g transform="matrix(1, 0, 0, 1, 0, 0)" filter="url(#Caminho_276)">
    <path id="Caminho_276-2" data-name="Caminho 276" d="M0,0H71.145V71.145H0Z" transform="translate(232.15 78.64) rotate(-90)" fill="#fff"/>
  </g>
  <g transform="matrix(1, 0, 0, 1, 0, 0)" filter="url(#Caminho_192)">
    <path id="Caminho_192-2" data-name="Caminho 192" d="M0,0H71.145V71.145H0Z" transform="translate(18 149.79) rotate(-90)" fill="#fff"/>
  </g>
  <g transform="matrix(1, 0, 0, 1, 0, 0)" filter="url(#Caminho_196)">
    <path id="Caminho_196-2" data-name="Caminho 196" d="M0,0H71.145V71.145H0Z" transform="translate(18 292.08) rotate(-90)" fill="#fff"/>
  </g>
  <g transform="matrix(1, 0, 0, 1, 0, 0)" filter="url(#Caminho_202)">
    <path id="Caminho_202-2" data-name="Caminho 202" d="M0,0H71.145V71.145H0Z" transform="translate(18 576.66) rotate(-90)" fill="#fff"/>
  </g>
  <g transform="matrix(1, 0, 0, 1, 0, 0)" filter="url(#Caminho_204)">
    <path id="Caminho_204-2" data-name="Caminho 204" d="M0,0H71.145V71.145H0Z" transform="translate(18 718.95) rotate(-90)" fill="#fff"/>
  </g>
  <g transform="matrix(1, 0, 0, 1, 0, 0)" filter="url(#Caminho_201)">
    <path id="Caminho_201-2" data-name="Caminho 201" d="M0,0H71.145V71.145H0Z" transform="translate(18 505.51) rotate(-90)" fill="#fff"/>
  </g>
  <g transform="matrix(1, 0, 0, 1, 0, 0)" filter="url(#Caminho_199)">
    <path id="Caminho_199-2" data-name="Caminho 199" d="M0,0H71.145V71.145H0Z" transform="translate(18 363.22) rotate(-90)" fill="#fff"/>
  </g>
  <g transform="matrix(1, 0, 0, 1, 0, 0)" filter="url(#Caminho_207)">
    <path id="Caminho_207-2" data-name="Caminho 207" d="M0,0H71.145V71.145H0Z" transform="translate(90.29 790.09) rotate(90)" fill="#fff"/>
  </g>
  <g transform="matrix(1, 0, 0, 1, 0, 0)" filter="url(#Caminho_193)">
    <path id="Caminho_193-2" data-name="Caminho 193" d="M0,0H71.145V71.145H0Z" transform="translate(18 78.64) rotate(-90)" fill="#fff"/>
  </g>
</svg>
