<svg xmlns="http://www.w3.org/2000/svg" xmlns:xlink="http://www.w3.org/1999/xlink" width="1947.5" height="1428.333" viewBox="0 0 1947.5 1428.333">
  <defs>
    <filter id="Caminho_180" x="1705.855" y="794.094" width="89.145" height="89.145" filterUnits="userSpaceOnUse">
      <feOffset dy="3" input="SourceAlpha"/>
      <feGaussianBlur stdDeviation="3" result="blur"/>
      <feFlood flood-opacity="0.161"/>
      <feComposite operator="in" in2="blur"/>
      <feComposite in="SourceGraphic"/>
    </filter>
    <filter id="Caminho_341" x="149" y="794.094" width="89.145" height="89.145" filterUnits="userSpaceOnUse">
      <feOffset dy="3" input="SourceAlpha"/>
      <feGaussianBlur stdDeviation="3" result="blur-2"/>
      <feFlood flood-opacity="0.161"/>
      <feComposite operator="in" in2="blur-2"/>
      <feComposite in="SourceGraphic"/>
    </filter>
    <filter id="Caminho_179" x="1778.855" y="722.949" width="89.145" height="89.145" filterUnits="userSpaceOnUse">
      <feOffset dy="3" input="SourceAlpha"/>
      <feGaussianBlur stdDeviation="3" result="blur-3"/>
      <feFlood flood-opacity="0.161"/>
      <feComposite operator="in" in2="blur-3"/>
      <feComposite in="SourceGraphic"/>
    </filter>
    <filter id="Caminho_340" x="76" y="722.949" width="89.145" height="89.145" filterUnits="userSpaceOnUse">
      <feOffset dy="3" input="SourceAlpha"/>
      <feGaussianBlur stdDeviation="3" result="blur-4"/>
      <feFlood flood-opacity="0.161"/>
      <feComposite operator="in" in2="blur-4"/>
      <feComposite in="SourceGraphic"/>
    </filter>
    <filter id="Caminho_170" x="1709.355" y="652.304" width="92.145" height="92.145" filterUnits="userSpaceOnUse">
      <feOffset dx="5" dy="5" input="SourceAlpha"/>
      <feGaussianBlur stdDeviation="3.5" result="blur-5"/>
      <feFlood flood-opacity="0.161"/>
      <feComposite operator="in" in2="blur-5"/>
      <feComposite in="SourceGraphic"/>
    </filter>
    <filter id="Caminho_338" x="152.5" y="652.304" width="92.145" height="92.145" filterUnits="userSpaceOnUse">
      <feOffset dx="5" dy="5" input="SourceAlpha"/>
      <feGaussianBlur stdDeviation="3.5" result="blur-6"/>
      <feFlood flood-opacity="0.161"/>
      <feComposite operator="in" in2="blur-6"/>
      <feComposite in="SourceGraphic"/>
    </filter>
    <filter id="Caminho_181" x="1855.355" y="652.304" width="92.145" height="92.145" filterUnits="userSpaceOnUse">
      <feOffset dx="5" dy="5" input="SourceAlpha"/>
      <feGaussianBlur stdDeviation="3.5" result="blur-7"/>
      <feFlood flood-opacity="0.161"/>
      <feComposite operator="in" in2="blur-7"/>
      <feComposite in="SourceGraphic"/>
    </filter>
    <filter id="Caminho_182" x="1855.355" y="794.593" width="92.145" height="92.145" filterUnits="userSpaceOnUse">
      <feOffset dx="5" dy="5" input="SourceAlpha"/>
      <feGaussianBlur stdDeviation="3.5" result="blur-8"/>
      <feFlood flood-opacity="0.161"/>
      <feComposite operator="in" in2="blur-8"/>
      <feComposite in="SourceGraphic"/>
    </filter>
    <filter id="Caminho_171" x="1778.855" y="580.66" width="89.145" height="89.145" filterUnits="userSpaceOnUse">
      <feOffset dy="3" input="SourceAlpha"/>
      <feGaussianBlur stdDeviation="3" result="blur-9"/>
      <feFlood flood-opacity="0.161"/>
      <feComposite operator="in" in2="blur-9"/>
      <feComposite in="SourceGraphic"/>
    </filter>
    <filter id="Caminho_337" x="76" y="580.66" width="89.145" height="89.145" filterUnits="userSpaceOnUse">
      <feOffset dy="3" input="SourceAlpha"/>
      <feGaussianBlur stdDeviation="3" result="blur-10"/>
      <feFlood flood-opacity="0.161"/>
      <feComposite operator="in" in2="blur-10"/>
      <feComposite in="SourceGraphic"/>
    </filter>
    <filter id="Caminho_172" x="1705.855" y="509.514" width="89.145" height="89.145" filterUnits="userSpaceOnUse">
      <feOffset dy="3" input="SourceAlpha"/>
      <feGaussianBlur stdDeviation="3" result="blur-11"/>
      <feFlood flood-opacity="0.161"/>
      <feComposite operator="in" in2="blur-11"/>
      <feComposite in="SourceGraphic"/>
    </filter>
    <filter id="Caminho_335" x="149" y="509.514" width="89.145" height="89.145" filterUnits="userSpaceOnUse">
      <feOffset dy="3" input="SourceAlpha"/>
      <feGaussianBlur stdDeviation="3" result="blur-12"/>
      <feFlood flood-opacity="0.161"/>
      <feComposite operator="in" in2="blur-12"/>
      <feComposite in="SourceGraphic"/>
    </filter>
    <filter id="Caminho_173" x="1702.5" y="362.725" width="98.145" height="98.145" filterUnits="userSpaceOnUse">
      <feOffset dy="3" input="SourceAlpha"/>
      <feGaussianBlur stdDeviation="4.5" result="blur-13"/>
      <feFlood flood-opacity="0.161"/>
      <feComposite operator="in" in2="blur-13"/>
      <feComposite in="SourceGraphic"/>
    </filter>
    <filter id="Caminho_174" x="1774.355" y="291.581" width="98.145" height="98.145" filterUnits="userSpaceOnUse">
      <feOffset dy="3" input="SourceAlpha"/>
      <feGaussianBlur stdDeviation="4.5" result="blur-14"/>
      <feFlood flood-opacity="0.161"/>
      <feComposite operator="in" in2="blur-14"/>
      <feComposite in="SourceGraphic"/>
    </filter>
    <filter id="Caminho_329" x="71.5" y="291.581" width="98.145" height="98.145" filterUnits="userSpaceOnUse">
      <feOffset dy="3" input="SourceAlpha"/>
      <feGaussianBlur stdDeviation="4.5" result="blur-15"/>
      <feFlood flood-opacity="0.161"/>
      <feComposite operator="in" in2="blur-15"/>
      <feComposite in="SourceGraphic"/>
    </filter>
    <filter id="Caminho_175" x="1774.355" y="149.291" width="98.145" height="98.145" filterUnits="userSpaceOnUse">
      <feOffset dy="3" input="SourceAlpha"/>
      <feGaussianBlur stdDeviation="4.5" result="blur-16"/>
      <feFlood flood-opacity="0.161"/>
      <feComposite operator="in" in2="blur-16"/>
      <feComposite in="SourceGraphic"/>
    </filter>
    <filter id="Caminho_326" x="71.5" y="149.291" width="98.145" height="98.145" filterUnits="userSpaceOnUse">
      <feOffset dy="3" input="SourceAlpha"/>
      <feGaussianBlur stdDeviation="4.5" result="blur-17"/>
      <feFlood flood-opacity="0.161"/>
      <feComposite operator="in" in2="blur-17"/>
      <feComposite in="SourceGraphic"/>
    </filter>
    <filter id="Caminho_176" x="1774.355" y="356.725" width="98.145" height="98.145" filterUnits="userSpaceOnUse">
      <feOffset dy="-3" input="SourceAlpha"/>
      <feGaussianBlur stdDeviation="4.5" result="blur-18"/>
      <feFlood flood-opacity="0.161"/>
      <feComposite operator="in" in2="blur-18"/>
      <feComposite in="SourceGraphic"/>
    </filter>
    <filter id="Caminho_332" x="71.5" y="356.725" width="98.145" height="98.145" filterUnits="userSpaceOnUse">
      <feOffset dy="-3" input="SourceAlpha"/>
      <feGaussianBlur stdDeviation="4.5" result="blur-19"/>
      <feFlood flood-opacity="0.161"/>
      <feComposite operator="in" in2="blur-19"/>
      <feComposite in="SourceGraphic"/>
    </filter>
    <filter id="Caminho_177" x="1769.855" y="509.514" width="89.145" height="89.145" filterUnits="userSpaceOnUse">
      <feOffset dx="-9" dy="3" input="SourceAlpha"/>
      <feGaussianBlur stdDeviation="3" result="blur-20"/>
      <feFlood flood-opacity="0.161"/>
      <feComposite operator="in" in2="blur-20"/>
      <feComposite in="SourceGraphic"/>
    </filter>
    <filter id="Caminho_169" x="1635.855" y="438.37" width="89.145" height="89.145" filterUnits="userSpaceOnUse">
      <feOffset dy="3" input="SourceAlpha"/>
      <feGaussianBlur stdDeviation="3" result="blur-21"/>
      <feFlood flood-opacity="0.161"/>
      <feComposite operator="in" in2="blur-21"/>
      <feComposite in="SourceGraphic"/>
    </filter>
    <filter id="Caminho_183" x="1705.855" y="794.094" width="89.145" height="89.145" filterUnits="userSpaceOnUse">
      <feOffset dy="3" input="SourceAlpha"/>
      <feGaussianBlur stdDeviation="3" result="blur-22"/>
      <feFlood flood-opacity="0.161"/>
      <feComposite operator="in" in2="blur-22"/>
      <feComposite in="SourceGraphic"/>
    </filter>
    <filter id="Caminho_343" x="149" y="794.094" width="89.145" height="89.145" filterUnits="userSpaceOnUse">
      <feOffset dy="3" input="SourceAlpha"/>
      <feGaussianBlur stdDeviation="3" result="blur-23"/>
      <feFlood flood-opacity="0.161"/>
      <feComposite operator="in" in2="blur-23"/>
      <feComposite in="SourceGraphic"/>
    </filter>
    <filter id="Caminho_168" x="1635.855" y="296.08" width="89.145" height="89.145" filterUnits="userSpaceOnUse">
      <feOffset dy="3" input="SourceAlpha"/>
      <feGaussianBlur stdDeviation="3" result="blur-24"/>
      <feFlood flood-opacity="0.161"/>
      <feComposite operator="in" in2="blur-24"/>
      <feComposite in="SourceGraphic"/>
    </filter>
    <filter id="Caminho_184" x="1850.71" y="224.936" width="89.145" height="89.145" filterUnits="userSpaceOnUse">
      <feOffset dy="3" input="SourceAlpha"/>
      <feGaussianBlur stdDeviation="3" result="blur-25"/>
      <feFlood flood-opacity="0.161"/>
      <feComposite operator="in" in2="blur-25"/>
      <feComposite in="SourceGraphic"/>
    </filter>
    <filter id="Caminho_178" x="1707" y="224.935" width="89.145" height="89.145" filterUnits="userSpaceOnUse">
      <feOffset dy="3" input="SourceAlpha"/>
      <feGaussianBlur stdDeviation="3" result="blur-26"/>
      <feFlood flood-opacity="0.161"/>
      <feComposite operator="in" in2="blur-26"/>
      <feComposite in="SourceGraphic"/>
    </filter>
    <filter id="Caminho_328" x="147.855" y="224.935" width="89.145" height="89.145" filterUnits="userSpaceOnUse">
      <feOffset dy="3" input="SourceAlpha"/>
      <feGaussianBlur stdDeviation="3" result="blur-27"/>
      <feFlood flood-opacity="0.161"/>
      <feComposite operator="in" in2="blur-27"/>
      <feComposite in="SourceGraphic"/>
    </filter>
    <filter id="Caminho_166" x="1851.855" y="82.646" width="89.145" height="89.145" filterUnits="userSpaceOnUse">
      <feOffset dy="3" input="SourceAlpha"/>
      <feGaussianBlur stdDeviation="3" result="blur-28"/>
      <feFlood flood-opacity="0.161"/>
      <feComposite operator="in" in2="blur-28"/>
      <feComposite in="SourceGraphic"/>
    </filter>
    <filter id="Caminho_164" x="1848.855" y="11.5" width="89.145" height="89.145" filterUnits="userSpaceOnUse">
      <feOffset dx="-3" dy="3" input="SourceAlpha"/>
      <feGaussianBlur stdDeviation="3" result="blur-29"/>
      <feFlood flood-opacity="0.161"/>
      <feComposite operator="in" in2="blur-29"/>
      <feComposite in="SourceGraphic"/>
    </filter>
    <filter id="Caminho_185" x="1848.855" y="438.37" width="89.145" height="89.145" filterUnits="userSpaceOnUse">
      <feOffset dx="-3" dy="3" input="SourceAlpha"/>
      <feGaussianBlur stdDeviation="3" result="blur-30"/>
      <feFlood flood-opacity="0.161"/>
      <feComposite operator="in" in2="blur-30"/>
      <feComposite in="SourceGraphic"/>
    </filter>
    <filter id="Caminho_187" x="1786.71" y="853.023" width="89.145" height="89.145" filterUnits="userSpaceOnUse">
      <feOffset dx="6" dy="3" input="SourceAlpha"/>
      <feGaussianBlur stdDeviation="3" result="blur-31"/>
      <feFlood flood-opacity="0.161"/>
      <feComposite operator="in" in2="blur-31"/>
      <feComposite in="SourceGraphic"/>
    </filter>
    <filter id="Caminho_345" x="80.145" y="853.023" width="89.145" height="89.145" filterUnits="userSpaceOnUse">
      <feOffset dx="6" dy="3" input="SourceAlpha"/>
      <feGaussianBlur stdDeviation="3" result="blur-32"/>
      <feFlood flood-opacity="0.161"/>
      <feComposite operator="in" in2="blur-32"/>
      <feComposite in="SourceGraphic"/>
    </filter>
    <filter id="Caminho_165" x="1699.21" y="0" width="98.145" height="98.145" filterUnits="userSpaceOnUse">
      <feOffset dx="-4" dy="-4" input="SourceAlpha"/>
      <feGaussianBlur stdDeviation="4.5" result="blur-33"/>
      <feFlood flood-opacity="0.161"/>
      <feComposite operator="in" in2="blur-33"/>
      <feComposite in="SourceGraphic"/>
    </filter>
    <filter id="Caminho_322" x="138.645" y="0" width="98.145" height="98.145" filterUnits="userSpaceOnUse">
      <feOffset dx="-4" dy="-4" input="SourceAlpha"/>
      <feGaussianBlur stdDeviation="4.5" result="blur-34"/>
      <feFlood flood-opacity="0.161"/>
      <feComposite operator="in" in2="blur-34"/>
      <feComposite in="SourceGraphic"/>
    </filter>
    <filter id="Caminho_167" x="1782.21" y="81.146" width="98.145" height="98.145" filterUnits="userSpaceOnUse">
      <feOffset dx="6" dy="6" input="SourceAlpha"/>
      <feGaussianBlur stdDeviation="4.5" result="blur-35"/>
      <feFlood flood-opacity="0.161"/>
      <feComposite operator="in" in2="blur-35"/>
      <feComposite in="SourceGraphic"/>
    </filter>
    <filter id="Caminho_325" x="75.645" y="81.146" width="98.145" height="98.145" filterUnits="userSpaceOnUse">
      <feOffset dx="6" dy="6" input="SourceAlpha"/>
      <feGaussianBlur stdDeviation="4.5" result="blur-36"/>
      <feFlood flood-opacity="0.161"/>
      <feComposite operator="in" in2="blur-36"/>
      <feComposite in="SourceGraphic"/>
    </filter>
    <filter id="Caminho_186" x="1778.855" y="794.094" width="89.145" height="89.145" filterUnits="userSpaceOnUse">
      <feOffset dy="3" input="SourceAlpha"/>
      <feGaussianBlur stdDeviation="3" result="blur-37"/>
      <feFlood flood-opacity="0.161"/>
      <feComposite operator="in" in2="blur-37"/>
      <feComposite in="SourceGraphic"/>
    </filter>
    <filter id="Caminho_344" x="76" y="794.094" width="89.145" height="89.145" filterUnits="userSpaceOnUse">
      <feOffset dy="3" input="SourceAlpha"/>
      <feGaussianBlur stdDeviation="3" result="blur-38"/>
      <feFlood flood-opacity="0.161"/>
      <feComposite operator="in" in2="blur-38"/>
      <feComposite in="SourceGraphic"/>
    </filter>
    <filter id="Caminho_333" x="218.145" y="438.37" width="89.145" height="89.145" filterUnits="userSpaceOnUse">
      <feOffset dy="3" input="SourceAlpha"/>
      <feGaussianBlur stdDeviation="3" result="blur-39"/>
      <feFlood flood-opacity="0.161"/>
      <feComposite operator="in" in2="blur-39"/>
      <feComposite in="SourceGraphic"/>
    </filter>
    <filter id="Caminho_330" x="218.145" y="296.08" width="89.145" height="89.145" filterUnits="userSpaceOnUse">
      <feOffset dy="3" input="SourceAlpha"/>
      <feGaussianBlur stdDeviation="3" result="blur-40"/>
      <feFlood flood-opacity="0.161"/>
      <feComposite operator="in" in2="blur-40"/>
      <feComposite in="SourceGraphic"/>
    </filter>
    <filter id="Caminho_339" x="6.5" y="652.304" width="92.145" height="92.145" filterUnits="userSpaceOnUse">
      <feOffset dx="5" dy="5" input="SourceAlpha"/>
      <feGaussianBlur stdDeviation="3.5" result="blur-41"/>
      <feFlood flood-opacity="0.161"/>
      <feComposite operator="in" in2="blur-41"/>
      <feComposite in="SourceGraphic"/>
    </filter>
    <filter id="Caminho_342" x="6.5" y="794.593" width="92.145" height="92.145" filterUnits="userSpaceOnUse">
      <feOffset dx="5" dy="5" input="SourceAlpha"/>
      <feGaussianBlur stdDeviation="3.5" result="blur-42"/>
      <feFlood flood-opacity="0.161"/>
      <feComposite operator="in" in2="blur-42"/>
      <feComposite in="SourceGraphic"/>
    </filter>
    <filter id="Caminho_327" x="4.145" y="224.936" width="89.145" height="89.145" filterUnits="userSpaceOnUse">
      <feOffset dy="3" input="SourceAlpha"/>
      <feGaussianBlur stdDeviation="3" result="blur-43"/>
      <feFlood flood-opacity="0.161"/>
      <feComposite operator="in" in2="blur-43"/>
      <feComposite in="SourceGraphic"/>
    </filter>
    <filter id="Caminho_324" x="3" y="82.646" width="89.145" height="89.145" filterUnits="userSpaceOnUse">
      <feOffset dy="3" input="SourceAlpha"/>
      <feGaussianBlur stdDeviation="3" result="blur-44"/>
      <feFlood flood-opacity="0.161"/>
      <feComposite operator="in" in2="blur-44"/>
      <feComposite in="SourceGraphic"/>
    </filter>
    <filter id="Caminho_320" x="0" y="11.5" width="89.145" height="89.145" filterUnits="userSpaceOnUse">
      <feOffset dx="-3" dy="3" input="SourceAlpha"/>
      <feGaussianBlur stdDeviation="3" result="blur-45"/>
      <feFlood flood-opacity="0.161"/>
      <feComposite operator="in" in2="blur-45"/>
      <feComposite in="SourceGraphic"/>
    </filter>
    <filter id="Caminho_334" x="0" y="438.37" width="89.145" height="89.145" filterUnits="userSpaceOnUse">
      <feOffset dx="-3" dy="3" input="SourceAlpha"/>
      <feGaussianBlur stdDeviation="3" result="blur-46"/>
      <feFlood flood-opacity="0.161"/>
      <feComposite operator="in" in2="blur-46"/>
      <feComposite in="SourceGraphic"/>
    </filter>
  </defs>
  <g id="Retângulo_616" data-name="Retângulo 616" transform="translate(12 17.333)" fill="#8019b3" stroke="#707070" stroke-width="1">
    <rect width="1920" height="1411" stroke="none"/>
    <rect x="0.5" y="0.5" width="1919" height="1410" fill="none"/>
  </g>
  <text id="FOOOTER" transform="translate(215 167.333)" fill="#8019b3" font-size="69" font-family="SegoeUI, Segoe UI"><tspan x="0" y="0">FOOOTER</tspan></text>
  <g transform="matrix(1, 0, 0, 1, 0, 0)" filter="url(#Caminho_180)">
    <path id="Caminho_180-2" data-name="Caminho 180" d="M0,0H71.145V71.145H0Z" transform="translate(1786 800.09) rotate(90)" fill="#8019b3"/>
  </g>
  <g transform="matrix(1, 0, 0, 1, 0, 0)" filter="url(#Caminho_341)">
    <path id="Caminho_341-2" data-name="Caminho 341" d="M0,0H71.145V71.145H0Z" transform="translate(229.14 800.09) rotate(90)" fill="#8019b3"/>
  </g>
  <g transform="matrix(1, 0, 0, 1, 0, 0)" filter="url(#Caminho_179)">
    <path id="Caminho_179-2" data-name="Caminho 179" d="M0,0H71.145V71.145H0Z" transform="translate(1859 728.95) rotate(90)" fill="#8019b3"/>
  </g>
  <g transform="matrix(1, 0, 0, 1, 0, 0)" filter="url(#Caminho_340)">
    <path id="Caminho_340-2" data-name="Caminho 340" d="M0,0H71.145V71.145H0Z" transform="translate(156.14 728.95) rotate(90)" fill="#8019b3"/>
  </g>
  <g transform="matrix(1, 0, 0, 1, 0, 0)" filter="url(#Caminho_170)">
    <path id="Caminho_170-2" data-name="Caminho 170" d="M0,0H71.145V71.145H0Z" transform="translate(1786 657.8) rotate(90)" fill="#8019b3"/>
  </g>
  <g transform="matrix(1, 0, 0, 1, 0, 0)" filter="url(#Caminho_338)">
    <path id="Caminho_338-2" data-name="Caminho 338" d="M0,0H71.145V71.145H0Z" transform="translate(229.14 657.8) rotate(90)" fill="#8019b3"/>
  </g>
  <g transform="matrix(1, 0, 0, 1, 0, 0)" filter="url(#Caminho_181)">
    <path id="Caminho_181-2" data-name="Caminho 181" d="M0,0H71.145V71.145H0Z" transform="translate(1932 657.8) rotate(90)" fill="#8019b3"/>
  </g>
  <g transform="matrix(1, 0, 0, 1, 0, 0)" filter="url(#Caminho_182)">
    <path id="Caminho_182-2" data-name="Caminho 182" d="M0,0H71.145V71.145H0Z" transform="translate(1932 800.09) rotate(90)" fill="#8019b3"/>
  </g>
  <g transform="matrix(1, 0, 0, 1, 0, 0)" filter="url(#Caminho_171)">
    <path id="Caminho_171-2" data-name="Caminho 171" d="M0,0H71.145V71.145H0Z" transform="translate(1859 586.66) rotate(90)" fill="#8019b3"/>
  </g>
  <g transform="matrix(1, 0, 0, 1, 0, 0)" filter="url(#Caminho_337)">
    <path id="Caminho_337-2" data-name="Caminho 337" d="M0,0H71.145V71.145H0Z" transform="translate(156.14 586.66) rotate(90)" fill="#8019b3"/>
  </g>
  <g transform="matrix(1, 0, 0, 1, 0, 0)" filter="url(#Caminho_172)">
    <path id="Caminho_172-2" data-name="Caminho 172" d="M0,0H71.145V71.145H0Z" transform="translate(1786 515.51) rotate(90)" fill="#8019b3"/>
  </g>
  <g transform="matrix(1, 0, 0, 1, 0, 0)" filter="url(#Caminho_335)">
    <path id="Caminho_335-2" data-name="Caminho 335" d="M0,0H71.145V71.145H0Z" transform="translate(229.14 515.51) rotate(90)" fill="#8019b3"/>
  </g>
  <g transform="matrix(1, 0, 0, 1, 0, 0)" filter="url(#Caminho_173)">
    <path id="Caminho_173-2" data-name="Caminho 173" d="M0,0H71.145V71.145H0Z" transform="translate(1787.14 373.23) rotate(90)" fill="#8019b3"/>
  </g>
  <g transform="matrix(1, 0, 0, 1, 0, 0)" filter="url(#Caminho_174)">
    <path id="Caminho_174-2" data-name="Caminho 174" d="M0,0H71.145V71.145H0Z" transform="translate(1859 302.08) rotate(90)" fill="#8019b3"/>
  </g>
  <g transform="matrix(1, 0, 0, 1, 0, 0)" filter="url(#Caminho_329)">
    <path id="Caminho_329-2" data-name="Caminho 329" d="M0,0H71.145V71.145H0Z" transform="translate(156.14 302.08) rotate(90)" fill="#8019b3"/>
  </g>
  <g transform="matrix(1, 0, 0, 1, 0, 0)" filter="url(#Caminho_175)">
    <path id="Caminho_175-2" data-name="Caminho 175" d="M0,0H71.145V71.145H0Z" transform="translate(1859 159.79) rotate(90)" fill="#8019b3"/>
  </g>
  <g transform="matrix(1, 0, 0, 1, 0, 0)" filter="url(#Caminho_326)">
    <path id="Caminho_326-2" data-name="Caminho 326" d="M0,0H71.145V71.145H0Z" transform="translate(156.14 159.79) rotate(90)" fill="#8019b3"/>
  </g>
  <g transform="matrix(1, 0, 0, 1, 0, 0)" filter="url(#Caminho_176)">
    <path id="Caminho_176-2" data-name="Caminho 176" d="M0,0H71.145V71.145H0Z" transform="translate(1859 373.23) rotate(90)" fill="#8019b3"/>
  </g>
  <g transform="matrix(1, 0, 0, 1, 0, 0)" filter="url(#Caminho_332)">
    <path id="Caminho_332-2" data-name="Caminho 332" d="M0,0H71.145V71.145H0Z" transform="translate(156.14 373.23) rotate(90)" fill="#8019b3"/>
  </g>
  <g transform="matrix(1, 0, 0, 1, 0, 0)" filter="url(#Caminho_177)">
    <path id="Caminho_177-2" data-name="Caminho 177" d="M0,0H71.145V71.145H0Z" transform="translate(1859 515.51) rotate(90)" fill="#8019b3"/>
  </g>
  <g transform="matrix(1, 0, 0, 1, 0, 0)" filter="url(#Caminho_169)">
    <path id="Caminho_169-2" data-name="Caminho 169" d="M0,0H71.145V71.145H0Z" transform="translate(1716 444.37) rotate(90)" fill="#8019b3"/>
  </g>
  <g transform="matrix(1, 0, 0, 1, 0, 0)" filter="url(#Caminho_183)">
    <path id="Caminho_183-2" data-name="Caminho 183" d="M0,0H71.145V71.145H0Z" transform="translate(1786 800.09) rotate(90)" fill="#8019b3"/>
  </g>
  <g transform="matrix(1, 0, 0, 1, 0, 0)" filter="url(#Caminho_343)">
    <path id="Caminho_343-2" data-name="Caminho 343" d="M0,0H71.145V71.145H0Z" transform="translate(229.14 800.09) rotate(90)" fill="#8019b3"/>
  </g>
  <g transform="matrix(1, 0, 0, 1, 0, 0)" filter="url(#Caminho_168)">
    <path id="Caminho_168-2" data-name="Caminho 168" d="M0,0H71.145V71.145H0Z" transform="translate(1716 302.08) rotate(90)" fill="#8019b3"/>
  </g>
  <g transform="matrix(1, 0, 0, 1, 0, 0)" filter="url(#Caminho_184)">
    <path id="Caminho_184-2" data-name="Caminho 184" d="M0,0H71.145V71.145H0Z" transform="translate(1930.85 230.94) rotate(90)" fill="#8019b3"/>
  </g>
  <g transform="matrix(1, 0, 0, 1, 0, 0)" filter="url(#Caminho_178)">
    <path id="Caminho_178-2" data-name="Caminho 178" d="M0,0H71.145V71.145H0Z" transform="translate(1787.14 230.94) rotate(90)" fill="#8019b3"/>
  </g>
  <g transform="matrix(1, 0, 0, 1, 0, 0)" filter="url(#Caminho_328)">
    <path id="Caminho_328-2" data-name="Caminho 328" d="M0,0H71.145V71.145H0Z" transform="translate(228 230.94) rotate(90)" fill="#8019b3"/>
  </g>
  <g transform="matrix(1, 0, 0, 1, 0, 0)" filter="url(#Caminho_166)">
    <path id="Caminho_166-2" data-name="Caminho 166" d="M0,0H71.145V71.145H0Z" transform="translate(1932 88.65) rotate(90)" fill="#8019b3"/>
  </g>
  <g transform="matrix(1, 0, 0, 1, 0, 0)" filter="url(#Caminho_164)">
    <path id="Caminho_164-2" data-name="Caminho 164" d="M0,0H71.145V71.145H0Z" transform="translate(1932 17.5) rotate(90)" fill="#8019b3"/>
  </g>
  <g transform="matrix(1, 0, 0, 1, 0, 0)" filter="url(#Caminho_185)">
    <path id="Caminho_185-2" data-name="Caminho 185" d="M0,0H71.145V71.145H0Z" transform="translate(1932 444.37) rotate(90)" fill="#8019b3"/>
  </g>
  <g transform="matrix(1, 0, 0, 1, 0, 0)" filter="url(#Caminho_187)">
    <path id="Caminho_187-2" data-name="Caminho 187" d="M0,0H71.145V71.145H0Z" transform="translate(1860.85 859.02) rotate(90)" fill="#8019b3"/>
  </g>
  <g transform="matrix(1, 0, 0, 1, 0, 0)" filter="url(#Caminho_345)">
    <path id="Caminho_345-2" data-name="Caminho 345" d="M0,0H71.145V71.145H0Z" transform="translate(154.29 859.02) rotate(90)" fill="#8019b3"/>
  </g>
  <g transform="matrix(1, 0, 0, 1, 0, 0)" filter="url(#Caminho_165)">
    <path id="Caminho_165-2" data-name="Caminho 165" d="M0,0H71.145V71.145H0Z" transform="translate(1787.85 17.5) rotate(90)" fill="#8019b3"/>
  </g>
  <g transform="matrix(1, 0, 0, 1, 0, 0)" filter="url(#Caminho_322)">
    <path id="Caminho_322-2" data-name="Caminho 322" d="M0,0H71.145V71.145H0Z" transform="translate(227.29 17.5) rotate(90)" fill="#8019b3"/>
  </g>
  <g transform="matrix(1, 0, 0, 1, 0, 0)" filter="url(#Caminho_167)">
    <path id="Caminho_167-2" data-name="Caminho 167" d="M0,0H71.145V71.145H0Z" transform="translate(1860.85 88.65) rotate(90)" fill="#8019b3"/>
  </g>
  <g transform="matrix(1, 0, 0, 1, 0, 0)" filter="url(#Caminho_325)">
    <path id="Caminho_325-2" data-name="Caminho 325" d="M0,0H71.145V71.145H0Z" transform="translate(154.29 88.65) rotate(90)" fill="#8019b3"/>
  </g>
  <g transform="matrix(1, 0, 0, 1, 0, 0)" filter="url(#Caminho_186)">
    <path id="Caminho_186-2" data-name="Caminho 186" d="M0,0H71.145V71.145H0Z" transform="translate(1859 800.09) rotate(90)" fill="#8019b3"/>
  </g>
  <g transform="matrix(1, 0, 0, 1, 0, 0)" filter="url(#Caminho_344)">
    <path id="Caminho_344-2" data-name="Caminho 344" d="M0,0H71.145V71.145H0Z" transform="translate(156.14 800.09) rotate(90)" fill="#8019b3"/>
  </g>
  <g transform="matrix(1, 0, 0, 1, 0, 0)" filter="url(#Caminho_333)">
    <path id="Caminho_333-2" data-name="Caminho 333" d="M0,0H71.145V71.145H0Z" transform="translate(298.29 444.37) rotate(90)" fill="#8019b3"/>
  </g>
  <g transform="matrix(1, 0, 0, 1, 0, 0)" filter="url(#Caminho_330)">
    <path id="Caminho_330-2" data-name="Caminho 330" d="M0,0H71.145V71.145H0Z" transform="translate(298.29 302.08) rotate(90)" fill="#8019b3"/>
  </g>
  <g transform="matrix(1, 0, 0, 1, 0, 0)" filter="url(#Caminho_339)">
    <path id="Caminho_339-2" data-name="Caminho 339" d="M0,0H71.145V71.145H0Z" transform="translate(83.14 657.8) rotate(90)" fill="#8019b3"/>
  </g>
  <g transform="matrix(1, 0, 0, 1, 0, 0)" filter="url(#Caminho_342)">
    <path id="Caminho_342-2" data-name="Caminho 342" d="M0,0H71.145V71.145H0Z" transform="translate(83.14 800.09) rotate(90)" fill="#8019b3"/>
  </g>
  <g transform="matrix(1, 0, 0, 1, 0, 0)" filter="url(#Caminho_327)">
    <path id="Caminho_327-2" data-name="Caminho 327" d="M0,0H71.145V71.145H0Z" transform="translate(84.29 230.94) rotate(90)" fill="#8019b3"/>
  </g>
  <g transform="matrix(1, 0, 0, 1, 0, 0)" filter="url(#Caminho_324)">
    <path id="Caminho_324-2" data-name="Caminho 324" d="M0,0H71.145V71.145H0Z" transform="translate(83.14 88.65) rotate(90)" fill="#8019b3"/>
  </g>
  <g transform="matrix(1, 0, 0, 1, 0, 0)" filter="url(#Caminho_320)">
    <path id="Caminho_320-2" data-name="Caminho 320" d="M0,0H71.145V71.145H0Z" transform="translate(83.14 17.5) rotate(90)" fill="#8019b3"/>
  </g>
  <g transform="matrix(1, 0, 0, 1, 0, 0)" filter="url(#Caminho_334)">
    <path id="Caminho_334-2" data-name="Caminho 334" d="M0,0H71.145V71.145H0Z" transform="translate(83.14 444.37) rotate(90)" fill="#8019b3"/>
  </g>
</svg>
