<svg xmlns="http://www.w3.org/2000/svg" xmlns:xlink="http://www.w3.org/1999/xlink" width="1947.5" height="886.738" viewBox="0 0 1947.5 886.738">
  <defs>
    <filter id="Caminho_618" x="1705.855" y="794.094" width="89.145" height="89.145" filterUnits="userSpaceOnUse">
      <feOffset dy="3" input="SourceAlpha"/>
      <feGaussianBlur stdDeviation="3" result="blur"/>
      <feFlood flood-opacity="0.161"/>
      <feComposite operator="in" in2="blur"/>
      <feComposite in="SourceGraphic"/>
    </filter>
    <filter id="Caminho_620" x="1778.855" y="722.949" width="89.145" height="89.145" filterUnits="userSpaceOnUse">
      <feOffset dy="3" input="SourceAlpha"/>
      <feGaussianBlur stdDeviation="3" result="blur-2"/>
      <feFlood flood-opacity="0.161"/>
      <feComposite operator="in" in2="blur-2"/>
      <feComposite in="SourceGraphic"/>
    </filter>
    <filter id="Caminho_622" x="1709.355" y="652.304" width="92.145" height="92.145" filterUnits="userSpaceOnUse">
      <feOffset dx="5" dy="5" input="SourceAlpha"/>
      <feGaussianBlur stdDeviation="3.5" result="blur-3"/>
      <feFlood flood-opacity="0.161"/>
      <feComposite operator="in" in2="blur-3"/>
      <feComposite in="SourceGraphic"/>
    </filter>
    <filter id="Caminho_624" x="1855.355" y="652.304" width="92.145" height="92.145" filterUnits="userSpaceOnUse">
      <feOffset dx="5" dy="5" input="SourceAlpha"/>
      <feGaussianBlur stdDeviation="3.5" result="blur-4"/>
      <feFlood flood-opacity="0.161"/>
      <feComposite operator="in" in2="blur-4"/>
      <feComposite in="SourceGraphic"/>
    </filter>
    <filter id="Caminho_625" x="1855.355" y="794.593" width="92.145" height="92.145" filterUnits="userSpaceOnUse">
      <feOffset dx="5" dy="5" input="SourceAlpha"/>
      <feGaussianBlur stdDeviation="3.5" result="blur-5"/>
      <feFlood flood-opacity="0.161"/>
      <feComposite operator="in" in2="blur-5"/>
      <feComposite in="SourceGraphic"/>
    </filter>
    <filter id="Caminho_626" x="1778.855" y="580.66" width="89.145" height="89.145" filterUnits="userSpaceOnUse">
      <feOffset dy="3" input="SourceAlpha"/>
      <feGaussianBlur stdDeviation="3" result="blur-6"/>
      <feFlood flood-opacity="0.161"/>
      <feComposite operator="in" in2="blur-6"/>
      <feComposite in="SourceGraphic"/>
    </filter>
    <filter id="Caminho_628" x="1705.855" y="509.514" width="89.145" height="89.145" filterUnits="userSpaceOnUse">
      <feOffset dy="3" input="SourceAlpha"/>
      <feGaussianBlur stdDeviation="3" result="blur-7"/>
      <feFlood flood-opacity="0.161"/>
      <feComposite operator="in" in2="blur-7"/>
      <feComposite in="SourceGraphic"/>
    </filter>
    <filter id="Caminho_630" x="1702.5" y="362.725" width="98.145" height="98.145" filterUnits="userSpaceOnUse">
      <feOffset dy="3" input="SourceAlpha"/>
      <feGaussianBlur stdDeviation="4.5" result="blur-8"/>
      <feFlood flood-opacity="0.161"/>
      <feComposite operator="in" in2="blur-8"/>
      <feComposite in="SourceGraphic"/>
    </filter>
    <filter id="Caminho_631" x="1774.355" y="291.581" width="98.145" height="98.145" filterUnits="userSpaceOnUse">
      <feOffset dy="3" input="SourceAlpha"/>
      <feGaussianBlur stdDeviation="4.5" result="blur-9"/>
      <feFlood flood-opacity="0.161"/>
      <feComposite operator="in" in2="blur-9"/>
      <feComposite in="SourceGraphic"/>
    </filter>
    <filter id="Caminho_633" x="1774.355" y="149.291" width="98.145" height="98.145" filterUnits="userSpaceOnUse">
      <feOffset dy="3" input="SourceAlpha"/>
      <feGaussianBlur stdDeviation="4.5" result="blur-10"/>
      <feFlood flood-opacity="0.161"/>
      <feComposite operator="in" in2="blur-10"/>
      <feComposite in="SourceGraphic"/>
    </filter>
    <filter id="Caminho_635" x="1774.355" y="356.725" width="98.145" height="98.145" filterUnits="userSpaceOnUse">
      <feOffset dy="-3" input="SourceAlpha"/>
      <feGaussianBlur stdDeviation="4.5" result="blur-11"/>
      <feFlood flood-opacity="0.161"/>
      <feComposite operator="in" in2="blur-11"/>
      <feComposite in="SourceGraphic"/>
    </filter>
    <filter id="Caminho_637" x="1769.855" y="509.514" width="89.145" height="89.145" filterUnits="userSpaceOnUse">
      <feOffset dx="-9" dy="3" input="SourceAlpha"/>
      <feGaussianBlur stdDeviation="3" result="blur-12"/>
      <feFlood flood-opacity="0.161"/>
      <feComposite operator="in" in2="blur-12"/>
      <feComposite in="SourceGraphic"/>
    </filter>
    <filter id="Caminho_639" x="1705.855" y="794.094" width="89.145" height="89.145" filterUnits="userSpaceOnUse">
      <feOffset dy="3" input="SourceAlpha"/>
      <feGaussianBlur stdDeviation="3" result="blur-13"/>
      <feFlood flood-opacity="0.161"/>
      <feComposite operator="in" in2="blur-13"/>
      <feComposite in="SourceGraphic"/>
    </filter>
    <filter id="Caminho_642" x="1850.71" y="224.936" width="89.145" height="89.145" filterUnits="userSpaceOnUse">
      <feOffset dy="3" input="SourceAlpha"/>
      <feGaussianBlur stdDeviation="3" result="blur-14"/>
      <feFlood flood-opacity="0.161"/>
      <feComposite operator="in" in2="blur-14"/>
      <feComposite in="SourceGraphic"/>
    </filter>
    <filter id="Caminho_643" x="1707" y="224.935" width="89.145" height="89.145" filterUnits="userSpaceOnUse">
      <feOffset dy="3" input="SourceAlpha"/>
      <feGaussianBlur stdDeviation="3" result="blur-15"/>
      <feFlood flood-opacity="0.161"/>
      <feComposite operator="in" in2="blur-15"/>
      <feComposite in="SourceGraphic"/>
    </filter>
    <filter id="Caminho_645" x="1851.855" y="82.646" width="89.145" height="89.145" filterUnits="userSpaceOnUse">
      <feOffset dy="3" input="SourceAlpha"/>
      <feGaussianBlur stdDeviation="3" result="blur-16"/>
      <feFlood flood-opacity="0.161"/>
      <feComposite operator="in" in2="blur-16"/>
      <feComposite in="SourceGraphic"/>
    </filter>
    <filter id="Caminho_646" x="1848.855" y="11.5" width="89.145" height="89.145" filterUnits="userSpaceOnUse">
      <feOffset dx="-3" dy="3" input="SourceAlpha"/>
      <feGaussianBlur stdDeviation="3" result="blur-17"/>
      <feFlood flood-opacity="0.161"/>
      <feComposite operator="in" in2="blur-17"/>
      <feComposite in="SourceGraphic"/>
    </filter>
    <filter id="Caminho_647" x="1848.855" y="438.37" width="89.145" height="89.145" filterUnits="userSpaceOnUse">
      <feOffset dx="-3" dy="3" input="SourceAlpha"/>
      <feGaussianBlur stdDeviation="3" result="blur-18"/>
      <feFlood flood-opacity="0.161"/>
      <feComposite operator="in" in2="blur-18"/>
      <feComposite in="SourceGraphic"/>
    </filter>
    <filter id="Caminho_648" x="1699.21" y="0" width="98.145" height="98.145" filterUnits="userSpaceOnUse">
      <feOffset dx="-4" dy="-4" input="SourceAlpha"/>
      <feGaussianBlur stdDeviation="4.5" result="blur-19"/>
      <feFlood flood-opacity="0.161"/>
      <feComposite operator="in" in2="blur-19"/>
      <feComposite in="SourceGraphic"/>
    </filter>
    <filter id="Caminho_650" x="1782.21" y="81.146" width="98.145" height="98.145" filterUnits="userSpaceOnUse">
      <feOffset dx="6" dy="6" input="SourceAlpha"/>
      <feGaussianBlur stdDeviation="4.5" result="blur-20"/>
      <feFlood flood-opacity="0.161"/>
      <feComposite operator="in" in2="blur-20"/>
      <feComposite in="SourceGraphic"/>
    </filter>
    <filter id="Caminho_652" x="1778.855" y="794.094" width="89.145" height="89.145" filterUnits="userSpaceOnUse">
      <feOffset dy="3" input="SourceAlpha"/>
      <feGaussianBlur stdDeviation="3" result="blur-21"/>
      <feFlood flood-opacity="0.161"/>
      <feComposite operator="in" in2="blur-21"/>
      <feComposite in="SourceGraphic"/>
    </filter>
    <filter id="Caminho_638" x="1635.855" y="438.37" width="89.145" height="89.145" filterUnits="userSpaceOnUse">
      <feOffset dy="3" input="SourceAlpha"/>
      <feGaussianBlur stdDeviation="3" result="blur-22"/>
      <feFlood flood-opacity="0.161"/>
      <feComposite operator="in" in2="blur-22"/>
      <feComposite in="SourceGraphic"/>
    </filter>
    <filter id="Caminho_641" x="1635.855" y="296.08" width="89.145" height="89.145" filterUnits="userSpaceOnUse">
      <feOffset dy="3" input="SourceAlpha"/>
      <feGaussianBlur stdDeviation="3" result="blur-23"/>
      <feFlood flood-opacity="0.161"/>
      <feComposite operator="in" in2="blur-23"/>
      <feComposite in="SourceGraphic"/>
    </filter>
    <filter id="Caminho_619" x="149" y="794.094" width="89.145" height="89.145" filterUnits="userSpaceOnUse">
      <feOffset dy="3" input="SourceAlpha"/>
      <feGaussianBlur stdDeviation="3" result="blur-24"/>
      <feFlood flood-opacity="0.161"/>
      <feComposite operator="in" in2="blur-24"/>
      <feComposite in="SourceGraphic"/>
    </filter>
    <filter id="Caminho_621" x="76" y="722.949" width="89.145" height="89.145" filterUnits="userSpaceOnUse">
      <feOffset dy="3" input="SourceAlpha"/>
      <feGaussianBlur stdDeviation="3" result="blur-25"/>
      <feFlood flood-opacity="0.161"/>
      <feComposite operator="in" in2="blur-25"/>
      <feComposite in="SourceGraphic"/>
    </filter>
    <filter id="Caminho_623" x="152.5" y="652.304" width="92.145" height="92.145" filterUnits="userSpaceOnUse">
      <feOffset dx="5" dy="5" input="SourceAlpha"/>
      <feGaussianBlur stdDeviation="3.5" result="blur-26"/>
      <feFlood flood-opacity="0.161"/>
      <feComposite operator="in" in2="blur-26"/>
      <feComposite in="SourceGraphic"/>
    </filter>
    <filter id="Caminho_627" x="76" y="580.66" width="89.145" height="89.145" filterUnits="userSpaceOnUse">
      <feOffset dy="3" input="SourceAlpha"/>
      <feGaussianBlur stdDeviation="3" result="blur-27"/>
      <feFlood flood-opacity="0.161"/>
      <feComposite operator="in" in2="blur-27"/>
      <feComposite in="SourceGraphic"/>
    </filter>
    <filter id="Caminho_629" x="149" y="509.514" width="89.145" height="89.145" filterUnits="userSpaceOnUse">
      <feOffset dy="3" input="SourceAlpha"/>
      <feGaussianBlur stdDeviation="3" result="blur-28"/>
      <feFlood flood-opacity="0.161"/>
      <feComposite operator="in" in2="blur-28"/>
      <feComposite in="SourceGraphic"/>
    </filter>
    <filter id="Caminho_632" x="71.5" y="291.581" width="98.145" height="98.145" filterUnits="userSpaceOnUse">
      <feOffset dy="3" input="SourceAlpha"/>
      <feGaussianBlur stdDeviation="4.5" result="blur-29"/>
      <feFlood flood-opacity="0.161"/>
      <feComposite operator="in" in2="blur-29"/>
      <feComposite in="SourceGraphic"/>
    </filter>
    <filter id="Caminho_634" x="71.5" y="149.291" width="98.145" height="98.145" filterUnits="userSpaceOnUse">
      <feOffset dy="3" input="SourceAlpha"/>
      <feGaussianBlur stdDeviation="4.5" result="blur-30"/>
      <feFlood flood-opacity="0.161"/>
      <feComposite operator="in" in2="blur-30"/>
      <feComposite in="SourceGraphic"/>
    </filter>
    <filter id="Caminho_636" x="71.5" y="356.725" width="98.145" height="98.145" filterUnits="userSpaceOnUse">
      <feOffset dy="-3" input="SourceAlpha"/>
      <feGaussianBlur stdDeviation="4.5" result="blur-31"/>
      <feFlood flood-opacity="0.161"/>
      <feComposite operator="in" in2="blur-31"/>
      <feComposite in="SourceGraphic"/>
    </filter>
    <filter id="Caminho_640" x="149" y="794.094" width="89.145" height="89.145" filterUnits="userSpaceOnUse">
      <feOffset dy="3" input="SourceAlpha"/>
      <feGaussianBlur stdDeviation="3" result="blur-32"/>
      <feFlood flood-opacity="0.161"/>
      <feComposite operator="in" in2="blur-32"/>
      <feComposite in="SourceGraphic"/>
    </filter>
    <filter id="Caminho_644" x="147.855" y="224.935" width="89.145" height="89.145" filterUnits="userSpaceOnUse">
      <feOffset dy="3" input="SourceAlpha"/>
      <feGaussianBlur stdDeviation="3" result="blur-33"/>
      <feFlood flood-opacity="0.161"/>
      <feComposite operator="in" in2="blur-33"/>
      <feComposite in="SourceGraphic"/>
    </filter>
    <filter id="Caminho_649" x="138.645" y="0" width="98.145" height="98.145" filterUnits="userSpaceOnUse">
      <feOffset dx="-4" dy="-4" input="SourceAlpha"/>
      <feGaussianBlur stdDeviation="4.5" result="blur-34"/>
      <feFlood flood-opacity="0.161"/>
      <feComposite operator="in" in2="blur-34"/>
      <feComposite in="SourceGraphic"/>
    </filter>
    <filter id="Caminho_651" x="75.645" y="81.146" width="98.145" height="98.145" filterUnits="userSpaceOnUse">
      <feOffset dx="6" dy="6" input="SourceAlpha"/>
      <feGaussianBlur stdDeviation="4.5" result="blur-35"/>
      <feFlood flood-opacity="0.161"/>
      <feComposite operator="in" in2="blur-35"/>
      <feComposite in="SourceGraphic"/>
    </filter>
    <filter id="Caminho_653" x="76" y="794.094" width="89.145" height="89.145" filterUnits="userSpaceOnUse">
      <feOffset dy="3" input="SourceAlpha"/>
      <feGaussianBlur stdDeviation="3" result="blur-36"/>
      <feFlood flood-opacity="0.161"/>
      <feComposite operator="in" in2="blur-36"/>
      <feComposite in="SourceGraphic"/>
    </filter>
    <filter id="Caminho_654" x="218.145" y="438.37" width="89.145" height="89.145" filterUnits="userSpaceOnUse">
      <feOffset dy="3" input="SourceAlpha"/>
      <feGaussianBlur stdDeviation="3" result="blur-37"/>
      <feFlood flood-opacity="0.161"/>
      <feComposite operator="in" in2="blur-37"/>
      <feComposite in="SourceGraphic"/>
    </filter>
    <filter id="Caminho_655" x="218.145" y="296.08" width="89.145" height="89.145" filterUnits="userSpaceOnUse">
      <feOffset dy="3" input="SourceAlpha"/>
      <feGaussianBlur stdDeviation="3" result="blur-38"/>
      <feFlood flood-opacity="0.161"/>
      <feComposite operator="in" in2="blur-38"/>
      <feComposite in="SourceGraphic"/>
    </filter>
    <filter id="Caminho_656" x="6.5" y="652.304" width="92.145" height="92.145" filterUnits="userSpaceOnUse">
      <feOffset dx="5" dy="5" input="SourceAlpha"/>
      <feGaussianBlur stdDeviation="3.5" result="blur-39"/>
      <feFlood flood-opacity="0.161"/>
      <feComposite operator="in" in2="blur-39"/>
      <feComposite in="SourceGraphic"/>
    </filter>
    <filter id="Caminho_657" x="6.5" y="794.593" width="92.145" height="92.145" filterUnits="userSpaceOnUse">
      <feOffset dx="5" dy="5" input="SourceAlpha"/>
      <feGaussianBlur stdDeviation="3.5" result="blur-40"/>
      <feFlood flood-opacity="0.161"/>
      <feComposite operator="in" in2="blur-40"/>
      <feComposite in="SourceGraphic"/>
    </filter>
    <filter id="Caminho_658" x="4.145" y="224.936" width="89.145" height="89.145" filterUnits="userSpaceOnUse">
      <feOffset dy="3" input="SourceAlpha"/>
      <feGaussianBlur stdDeviation="3" result="blur-41"/>
      <feFlood flood-opacity="0.161"/>
      <feComposite operator="in" in2="blur-41"/>
      <feComposite in="SourceGraphic"/>
    </filter>
    <filter id="Caminho_659" x="3" y="82.646" width="89.145" height="89.145" filterUnits="userSpaceOnUse">
      <feOffset dy="3" input="SourceAlpha"/>
      <feGaussianBlur stdDeviation="3" result="blur-42"/>
      <feFlood flood-opacity="0.161"/>
      <feComposite operator="in" in2="blur-42"/>
      <feComposite in="SourceGraphic"/>
    </filter>
    <filter id="Caminho_660" x="0" y="11.5" width="89.145" height="89.145" filterUnits="userSpaceOnUse">
      <feOffset dx="-3" dy="3" input="SourceAlpha"/>
      <feGaussianBlur stdDeviation="3" result="blur-43"/>
      <feFlood flood-opacity="0.161"/>
      <feComposite operator="in" in2="blur-43"/>
      <feComposite in="SourceGraphic"/>
    </filter>
    <filter id="Caminho_661" x="0" y="438.37" width="89.145" height="89.145" filterUnits="userSpaceOnUse">
      <feOffset dx="-3" dy="3" input="SourceAlpha"/>
      <feGaussianBlur stdDeviation="3" result="blur-44"/>
      <feFlood flood-opacity="0.161"/>
      <feComposite operator="in" in2="blur-44"/>
      <feComposite in="SourceGraphic"/>
    </filter>
  </defs>
  <g transform="matrix(1, 0, 0, 1, 0, 0)" filter="url(#Caminho_618)">
    <path id="Caminho_618-2" data-name="Caminho 618" d="M0,0H71.145V71.145H0Z" transform="translate(1786 800.09) rotate(90)" fill="#8019b3"/>
  </g>
  <g transform="matrix(1, 0, 0, 1, 0, 0)" filter="url(#Caminho_620)">
    <path id="Caminho_620-2" data-name="Caminho 620" d="M0,0H71.145V71.145H0Z" transform="translate(1859 728.95) rotate(90)" fill="#8019b3"/>
  </g>
  <g transform="matrix(1, 0, 0, 1, 0, 0)" filter="url(#Caminho_622)">
    <path id="Caminho_622-2" data-name="Caminho 622" d="M0,0H71.145V71.145H0Z" transform="translate(1786 657.8) rotate(90)" fill="#8019b3"/>
  </g>
  <g transform="matrix(1, 0, 0, 1, 0, 0)" filter="url(#Caminho_624)">
    <path id="Caminho_624-2" data-name="Caminho 624" d="M0,0H71.145V71.145H0Z" transform="translate(1932 657.8) rotate(90)" fill="#8019b3"/>
  </g>
  <g transform="matrix(1, 0, 0, 1, 0, 0)" filter="url(#Caminho_625)">
    <path id="Caminho_625-2" data-name="Caminho 625" d="M0,0H71.145V71.145H0Z" transform="translate(1932 800.09) rotate(90)" fill="#8019b3"/>
  </g>
  <g transform="matrix(1, 0, 0, 1, 0, 0)" filter="url(#Caminho_626)">
    <path id="Caminho_626-2" data-name="Caminho 626" d="M0,0H71.145V71.145H0Z" transform="translate(1859 586.66) rotate(90)" fill="#8019b3"/>
  </g>
  <g transform="matrix(1, 0, 0, 1, 0, 0)" filter="url(#Caminho_628)">
    <path id="Caminho_628-2" data-name="Caminho 628" d="M0,0H71.145V71.145H0Z" transform="translate(1786 515.51) rotate(90)" fill="#8019b3"/>
  </g>
  <g transform="matrix(1, 0, 0, 1, 0, 0)" filter="url(#Caminho_630)">
    <path id="Caminho_630-2" data-name="Caminho 630" d="M0,0H71.145V71.145H0Z" transform="translate(1787.15 373.23) rotate(90)" fill="#8019b3"/>
  </g>
  <g transform="matrix(1, 0, 0, 1, 0, 0)" filter="url(#Caminho_631)">
    <path id="Caminho_631-2" data-name="Caminho 631" d="M0,0H71.145V71.145H0Z" transform="translate(1859 302.08) rotate(90)" fill="#8019b3"/>
  </g>
  <g transform="matrix(1, 0, 0, 1, 0, 0)" filter="url(#Caminho_633)">
    <path id="Caminho_633-2" data-name="Caminho 633" d="M0,0H71.145V71.145H0Z" transform="translate(1859 159.79) rotate(90)" fill="#8019b3"/>
  </g>
  <g transform="matrix(1, 0, 0, 1, 0, 0)" filter="url(#Caminho_635)">
    <path id="Caminho_635-2" data-name="Caminho 635" d="M0,0H71.145V71.145H0Z" transform="translate(1859 373.23) rotate(90)" fill="#8019b3"/>
  </g>
  <g transform="matrix(1, 0, 0, 1, 0, 0)" filter="url(#Caminho_637)">
    <path id="Caminho_637-2" data-name="Caminho 637" d="M0,0H71.145V71.145H0Z" transform="translate(1859 515.51) rotate(90)" fill="#8019b3"/>
  </g>
  <g transform="matrix(1, 0, 0, 1, 0, 0)" filter="url(#Caminho_639)">
    <path id="Caminho_639-2" data-name="Caminho 639" d="M0,0H71.145V71.145H0Z" transform="translate(1786 800.09) rotate(90)" fill="#8019b3"/>
  </g>
  <g transform="matrix(1, 0, 0, 1, 0, 0)" filter="url(#Caminho_642)">
    <path id="Caminho_642-2" data-name="Caminho 642" d="M0,0H71.145V71.145H0Z" transform="translate(1930.85 230.94) rotate(90)" fill="#8019b3"/>
  </g>
  <g transform="matrix(1, 0, 0, 1, 0, 0)" filter="url(#Caminho_643)">
    <path id="Caminho_643-2" data-name="Caminho 643" d="M0,0H71.145V71.145H0Z" transform="translate(1787.15 230.94) rotate(90)" fill="#8019b3"/>
  </g>
  <g transform="matrix(1, 0, 0, 1, 0, 0)" filter="url(#Caminho_645)">
    <path id="Caminho_645-2" data-name="Caminho 645" d="M0,0H71.145V71.145H0Z" transform="translate(1932 88.65) rotate(90)" fill="#8019b3"/>
  </g>
  <g transform="matrix(1, 0, 0, 1, 0, 0)" filter="url(#Caminho_646)">
    <path id="Caminho_646-2" data-name="Caminho 646" d="M0,0H71.145V71.145H0Z" transform="translate(1932 17.5) rotate(90)" fill="#8019b3"/>
  </g>
  <g transform="matrix(1, 0, 0, 1, 0, 0)" filter="url(#Caminho_647)">
    <path id="Caminho_647-2" data-name="Caminho 647" d="M0,0H71.145V71.145H0Z" transform="translate(1932 444.37) rotate(90)" fill="#8019b3"/>
  </g>
  <g transform="matrix(1, 0, 0, 1, 0, 0)" filter="url(#Caminho_648)">
    <path id="Caminho_648-2" data-name="Caminho 648" d="M0,0H71.145V71.145H0Z" transform="translate(1787.85 17.5) rotate(90)" fill="#8019b3"/>
  </g>
  <g transform="matrix(1, 0, 0, 1, 0, 0)" filter="url(#Caminho_650)">
    <path id="Caminho_650-2" data-name="Caminho 650" d="M0,0H71.145V71.145H0Z" transform="translate(1860.85 88.65) rotate(90)" fill="#8019b3"/>
  </g>
  <g transform="matrix(1, 0, 0, 1, 0, 0)" filter="url(#Caminho_652)">
    <path id="Caminho_652-2" data-name="Caminho 652" d="M0,0H71.145V71.145H0Z" transform="translate(1859 800.09) rotate(90)" fill="#8019b3"/>
  </g>
  <g transform="matrix(1, 0, 0, 1, 0, 0)" filter="url(#Caminho_638)">
    <path id="Caminho_638-2" data-name="Caminho 638" d="M0,0H71.145V71.145H0Z" transform="translate(1716 444.37) rotate(90)" fill="#8019b3"/>
  </g>
  <g transform="matrix(1, 0, 0, 1, 0, 0)" filter="url(#Caminho_641)">
    <path id="Caminho_641-2" data-name="Caminho 641" d="M0,0H71.145V71.145H0Z" transform="translate(1716 302.08) rotate(90)" fill="#8019b3"/>
  </g>
  <g transform="matrix(1, 0, 0, 1, 0, 0)" filter="url(#Caminho_619)">
    <path id="Caminho_619-2" data-name="Caminho 619" d="M0,0H71.145V71.145H0Z" transform="translate(229.15 800.09) rotate(90)" fill="#8019b3"/>
  </g>
  <g transform="matrix(1, 0, 0, 1, 0, 0)" filter="url(#Caminho_621)">
    <path id="Caminho_621-2" data-name="Caminho 621" d="M0,0H71.145V71.145H0Z" transform="translate(156.15 728.95) rotate(90)" fill="#8019b3"/>
  </g>
  <g transform="matrix(1, 0, 0, 1, 0, 0)" filter="url(#Caminho_623)">
    <path id="Caminho_623-2" data-name="Caminho 623" d="M0,0H71.145V71.145H0Z" transform="translate(229.15 657.8) rotate(90)" fill="#8019b3"/>
  </g>
  <g transform="matrix(1, 0, 0, 1, 0, 0)" filter="url(#Caminho_627)">
    <path id="Caminho_627-2" data-name="Caminho 627" d="M0,0H71.145V71.145H0Z" transform="translate(156.15 586.66) rotate(90)" fill="#8019b3"/>
  </g>
  <g transform="matrix(1, 0, 0, 1, 0, 0)" filter="url(#Caminho_629)">
    <path id="Caminho_629-2" data-name="Caminho 629" d="M0,0H71.145V71.145H0Z" transform="translate(229.15 515.51) rotate(90)" fill="#8019b3"/>
  </g>
  <g transform="matrix(1, 0, 0, 1, 0, 0)" filter="url(#Caminho_632)">
    <path id="Caminho_632-2" data-name="Caminho 632" d="M0,0H71.145V71.145H0Z" transform="translate(156.15 302.08) rotate(90)" fill="#8019b3"/>
  </g>
  <g transform="matrix(1, 0, 0, 1, 0, 0)" filter="url(#Caminho_634)">
    <path id="Caminho_634-2" data-name="Caminho 634" d="M0,0H71.145V71.145H0Z" transform="translate(156.15 159.79) rotate(90)" fill="#8019b3"/>
  </g>
  <g transform="matrix(1, 0, 0, 1, 0, 0)" filter="url(#Caminho_636)">
    <path id="Caminho_636-2" data-name="Caminho 636" d="M0,0H71.145V71.145H0Z" transform="translate(156.15 373.23) rotate(90)" fill="#8019b3"/>
  </g>
  <g transform="matrix(1, 0, 0, 1, 0, 0)" filter="url(#Caminho_640)">
    <path id="Caminho_640-2" data-name="Caminho 640" d="M0,0H71.145V71.145H0Z" transform="translate(229.15 800.09) rotate(90)" fill="#8019b3"/>
  </g>
  <g transform="matrix(1, 0, 0, 1, 0, 0)" filter="url(#Caminho_644)">
    <path id="Caminho_644-2" data-name="Caminho 644" d="M0,0H71.145V71.145H0Z" transform="translate(228 230.94) rotate(90)" fill="#8019b3"/>
  </g>
  <g transform="matrix(1, 0, 0, 1, 0, 0)" filter="url(#Caminho_649)">
    <path id="Caminho_649-2" data-name="Caminho 649" d="M0,0H71.145V71.145H0Z" transform="translate(227.29 17.5) rotate(90)" fill="#8019b3"/>
  </g>
  <g transform="matrix(1, 0, 0, 1, 0, 0)" filter="url(#Caminho_651)">
    <path id="Caminho_651-2" data-name="Caminho 651" d="M0,0H71.145V71.145H0Z" transform="translate(154.29 88.65) rotate(90)" fill="#8019b3"/>
  </g>
  <g transform="matrix(1, 0, 0, 1, 0, 0)" filter="url(#Caminho_653)">
    <path id="Caminho_653-2" data-name="Caminho 653" d="M0,0H71.145V71.145H0Z" transform="translate(156.15 800.09) rotate(90)" fill="#8019b3"/>
  </g>
  <g transform="matrix(1, 0, 0, 1, 0, 0)" filter="url(#Caminho_654)">
    <path id="Caminho_654-2" data-name="Caminho 654" d="M0,0H71.145V71.145H0Z" transform="translate(298.29 444.37) rotate(90)" fill="#8019b3"/>
  </g>
  <g transform="matrix(1, 0, 0, 1, 0, 0)" filter="url(#Caminho_655)">
    <path id="Caminho_655-2" data-name="Caminho 655" d="M0,0H71.145V71.145H0Z" transform="translate(298.29 302.08) rotate(90)" fill="#8019b3"/>
  </g>
  <g transform="matrix(1, 0, 0, 1, 0, 0)" filter="url(#Caminho_656)">
    <path id="Caminho_656-2" data-name="Caminho 656" d="M0,0H71.145V71.145H0Z" transform="translate(83.15 657.8) rotate(90)" fill="#8019b3"/>
  </g>
  <g transform="matrix(1, 0, 0, 1, 0, 0)" filter="url(#Caminho_657)">
    <path id="Caminho_657-2" data-name="Caminho 657" d="M0,0H71.145V71.145H0Z" transform="translate(83.15 800.09) rotate(90)" fill="#8019b3"/>
  </g>
  <g transform="matrix(1, 0, 0, 1, 0, 0)" filter="url(#Caminho_658)">
    <path id="Caminho_658-2" data-name="Caminho 658" d="M0,0H71.145V71.145H0Z" transform="translate(84.29 230.94) rotate(90)" fill="#8019b3"/>
  </g>
  <g transform="matrix(1, 0, 0, 1, 0, 0)" filter="url(#Caminho_659)">
    <path id="Caminho_659-2" data-name="Caminho 659" d="M0,0H71.145V71.145H0Z" transform="translate(83.15 88.65) rotate(90)" fill="#8019b3"/>
  </g>
  <g transform="matrix(1, 0, 0, 1, 0, 0)" filter="url(#Caminho_660)">
    <path id="Caminho_660-2" data-name="Caminho 660" d="M0,0H71.145V71.145H0Z" transform="translate(83.15 17.5) rotate(90)" fill="#8019b3"/>
  </g>
  <g transform="matrix(1, 0, 0, 1, 0, 0)" filter="url(#Caminho_661)">
    <path id="Caminho_661-2" data-name="Caminho 661" d="M0,0H71.145V71.145H0Z" transform="translate(83.15 444.37) rotate(90)" fill="#8019b3"/>
  </g>
</svg>
