<svg id="linkedin" xmlns="http://www.w3.org/2000/svg" width="19.063" height="18.103" viewBox="0 0 19.063 18.103">
  <path id="LinkedIn-2" data-name="LinkedIn" d="M14.977,18.1V11.568c0-1.642-.591-2.763-2.07-2.763a2.235,2.235,0,0,0-2.1,1.485,2.753,2.753,0,0,0-.136.99V18.1H6.588s.055-11.068,0-12.215h4.087V7.619c-.009.013-.02.027-.028.04h.028v-.04A4.06,4.06,0,0,1,14.358,5.6c2.69,0,4.705,1.746,4.705,5.5v7ZM.242,18.1V5.888H4.328V18.1ZM2.258,4.221A2.118,2.118,0,1,1,2.313,0a2.118,2.118,0,1,1-.028,4.221Z" fill="#bababa"/>
</svg>
