<svg xmlns="http://www.w3.org/2000/svg" width="245.795" height="51" viewBox="0 0 245.795 51">
  <g id="Grupo_2" data-name="Grupo 2" transform="translate(-313.962 -515.362)">
    <g id="Grupo_1" data-name="Grupo 1" transform="translate(313.962 515.384)">
      <rect id="Retângulo_2" data-name="Retângulo 2" width="6.37" height="6.37" transform="translate(0 0)" fill="#8019b3"/>
      <rect id="Retângulo_3" data-name="Retângulo 3" width="6.37" height="6.37" transform="translate(6.37 0)" fill="#8019b3"/>
      <rect id="Retângulo_4" data-name="Retângulo 4" width="6.37" height="6.37" transform="translate(25.479 0)" fill="#fb5223"/>
      <rect id="Retângulo_5" data-name="Retângulo 5" width="6.37" height="6.37" transform="translate(31.848 0)" fill="#fb5223"/>
      <rect id="Retângulo_6" data-name="Retângulo 6" width="6.37" height="6.37" transform="translate(63.697 0)" fill="#ffc31f"/>
      <rect id="Retângulo_7" data-name="Retângulo 7" width="6.37" height="6.37" transform="translate(76.436 0)" fill="#8ac926"/>
      <rect id="Retângulo_8" data-name="Retângulo 8" width="6.37" height="6.37" transform="translate(82.805 0)" fill="#8ac926"/>
      <rect id="Retângulo_9" data-name="Retângulo 9" width="6.37" height="6.37" transform="translate(89.175 0)" fill="#8ac926"/>
      <rect id="Retângulo_10" data-name="Retângulo 10" width="6.37" height="6.37" transform="translate(101.914 0)" fill="#1985a1"/>
      <rect id="Retângulo_11" data-name="Retângulo 11" width="6.37" height="6.37" transform="translate(108.284 0)" fill="#1985a1"/>
      <rect id="Retângulo_12" data-name="Retângulo 12" width="6.37" height="6.37" transform="translate(12.739 6.37)" fill="#8019b3"/>
      <rect id="Retângulo_13" data-name="Retângulo 13" width="6.37" height="6.37" transform="translate(25.479 6.37)" fill="#fb5223"/>
      <rect id="Retângulo_14" data-name="Retângulo 14" width="6.37" height="6.37" transform="translate(31.848 6.37)" fill="#fb5223"/>
      <rect id="Retângulo_15" data-name="Retângulo 15" width="6.37" height="6.37" transform="translate(44.588 6.37)" fill="#ffc31f"/>
      <rect id="Retângulo_16" data-name="Retângulo 16" width="6.37" height="6.37" transform="translate(57.327 6.37)" fill="#ffc31f"/>
      <rect id="Retângulo_17" data-name="Retângulo 17" width="6.37" height="6.37" transform="translate(63.697 6.37)" fill="#ffc31f"/>
      <rect id="Retângulo_18" data-name="Retângulo 18" width="6.37" height="6.37" transform="translate(76.436 6.37)" fill="#8ac926"/>
      <rect id="Retângulo_19" data-name="Retângulo 19" width="6.37" height="6.37" transform="translate(89.175 6.37)" fill="#1985a1"/>
      <rect id="Retângulo_20" data-name="Retângulo 20" width="6.37" height="6.37" transform="translate(108.284 6.37)" fill="#1985a1"/>
      <rect id="Retângulo_21" data-name="Retângulo 21" width="6.37" height="6.37" transform="translate(0 12.739)" fill="#8019b3"/>
      <rect id="Retângulo_22" data-name="Retângulo 22" width="6.37" height="6.37" transform="translate(19.109 12.739)" fill="#8019b3"/>
      <rect id="Retângulo_23" data-name="Retângulo 23" width="6.37" height="6.37" transform="translate(25.479 12.739)" fill="#fb5223"/>
      <rect id="Retângulo_24" data-name="Retângulo 24" width="6.37" height="6.37" transform="translate(38.218 12.739)" fill="#fb5223"/>
      <rect id="Retângulo_25" data-name="Retângulo 25" width="6.37" height="6.37" transform="translate(44.588 12.739)" fill="#fb5223"/>
      <rect id="Retângulo_26" data-name="Retângulo 26" width="6.37" height="6.37" transform="translate(70.066 12.739)" fill="#8ac926"/>
      <rect id="Retângulo_27" data-name="Retângulo 27" width="6.37" height="6.37" transform="translate(76.436 12.739)" fill="#8ac926"/>
      <rect id="Retângulo_28" data-name="Retângulo 28" width="6.37" height="6.37" transform="translate(82.805 12.739)" fill="#8ac926"/>
      <rect id="Retângulo_29" data-name="Retângulo 29" width="6.37" height="6.37" transform="translate(95.545 12.739)" fill="#1985a1"/>
      <rect id="Retângulo_30" data-name="Retângulo 30" width="6.37" height="6.37" transform="translate(101.914 12.739)" fill="#1985a1"/>
      <rect id="Retângulo_31" data-name="Retângulo 31" width="6.37" height="6.37" transform="translate(31.848 19.109)" fill="#fb5223"/>
      <rect id="Retângulo_32" data-name="Retângulo 32" width="6.37" height="6.37" transform="translate(38.218 19.109)" fill="#fb5223"/>
      <rect id="Retângulo_33" data-name="Retângulo 33" width="6.37" height="6.37" transform="translate(44.588 19.109)" fill="#ffc31f"/>
      <rect id="Retângulo_34" data-name="Retângulo 34" width="6.37" height="6.37" transform="translate(50.957 19.109)" fill="#ffc31f"/>
      <rect id="Retângulo_35" data-name="Retângulo 35" width="6.37" height="6.37" transform="translate(63.697 19.109)" fill="#ffc31f"/>
      <rect id="Retângulo_36" data-name="Retângulo 36" width="6.37" height="6.37" transform="translate(70.066 19.109)" fill="#8ac926"/>
      <rect id="Retângulo_37" data-name="Retângulo 37" width="6.37" height="6.37" transform="translate(76.436 19.109)" fill="#8ac926"/>
      <rect id="Retângulo_38" data-name="Retângulo 38" width="6.37" height="6.37" transform="translate(82.805 19.109)" fill="#8ac926"/>
      <rect id="Retângulo_39" data-name="Retângulo 39" width="6.37" height="6.37" transform="translate(89.175 19.109)" fill="#8ac926"/>
      <rect id="Retângulo_40" data-name="Retângulo 40" width="6.37" height="6.37" transform="translate(0 25.479)" fill="#8019b3"/>
      <rect id="Retângulo_41" data-name="Retângulo 41" width="6.37" height="6.37" transform="translate(6.37 25.479)" fill="#8019b3"/>
      <rect id="Retângulo_42" data-name="Retângulo 42" width="6.37" height="6.37" transform="translate(12.739 25.479)" fill="#8019b3"/>
      <rect id="Retângulo_43" data-name="Retângulo 43" width="6.37" height="6.37" transform="translate(44.588 25.479)" fill="#ffc31f"/>
      <rect id="Retângulo_44" data-name="Retângulo 44" width="6.37" height="6.37" transform="translate(63.697 25.479)" fill="#ffc31f"/>
      <rect id="Retângulo_45" data-name="Retângulo 45" width="6.37" height="6.37" transform="translate(76.436 25.479)" fill="#8ac926"/>
      <rect id="Retângulo_46" data-name="Retângulo 46" width="6.37" height="6.37" transform="translate(82.805 25.479)" fill="#8ac926"/>
      <rect id="Retângulo_47" data-name="Retângulo 47" width="6.37" height="6.37" transform="translate(101.914 25.479)" fill="#1985a1"/>
      <rect id="Retângulo_48" data-name="Retângulo 48" width="6.37" height="6.37" transform="translate(108.284 25.479)" fill="#1985a1"/>
      <rect id="Retângulo_49" data-name="Retângulo 49" width="6.37" height="6.37" transform="translate(19.109 31.848)" fill="#fb5223"/>
      <rect id="Retângulo_50" data-name="Retângulo 50" width="6.37" height="6.37" transform="translate(25.479 31.848)" fill="#fb5223"/>
      <rect id="Retângulo_51" data-name="Retângulo 51" width="6.37" height="6.37" transform="translate(31.848 31.848)" fill="#fb5223"/>
      <rect id="Retângulo_52" data-name="Retângulo 52" width="6.37" height="6.37" transform="translate(38.218 31.848)" fill="#fb5223"/>
      <rect id="Retângulo_53" data-name="Retângulo 53" width="6.37" height="6.37" transform="translate(82.805 31.848)" fill="#8ac926"/>
      <rect id="Retângulo_54" data-name="Retângulo 54" width="6.37" height="6.37" transform="translate(89.175 31.848)" fill="#1985a1"/>
      <rect id="Retângulo_55" data-name="Retângulo 55" width="6.37" height="6.37" transform="translate(101.914 31.848)" fill="#1985a1"/>
      <rect id="Retângulo_56" data-name="Retângulo 56" width="6.37" height="6.37" transform="translate(0 38.218)" fill="#8019b3"/>
      <rect id="Retângulo_57" data-name="Retângulo 57" width="6.37" height="6.37" transform="translate(12.739 38.218)" fill="#8019b3"/>
      <rect id="Retângulo_58" data-name="Retângulo 58" width="6.37" height="6.37" transform="translate(19.109 38.218)" fill="#8019b3"/>
      <rect id="Retângulo_59" data-name="Retângulo 59" width="6.37" height="6.37" transform="translate(25.479 38.218)" fill="#fb5223"/>
      <rect id="Retângulo_60" data-name="Retângulo 60" width="6.37" height="6.37" transform="translate(38.218 38.218)" fill="#fb5223"/>
      <rect id="Retângulo_61" data-name="Retângulo 61" width="6.37" height="6.37" transform="translate(44.588 38.218)" fill="#ffc31f"/>
      <rect id="Retângulo_62" data-name="Retângulo 62" width="6.37" height="6.37" transform="translate(50.957 38.218)" fill="#ffc31f"/>
      <rect id="Retângulo_63" data-name="Retângulo 63" width="6.37" height="6.37" transform="translate(57.327 38.218)" fill="#ffc31f"/>
      <rect id="Retângulo_64" data-name="Retângulo 64" width="6.37" height="6.37" transform="translate(63.697 38.218)" fill="#ffc31f"/>
      <rect id="Retângulo_65" data-name="Retângulo 65" width="6.37" height="6.37" transform="translate(76.436 38.218)" fill="#8ac926"/>
      <rect id="Retângulo_66" data-name="Retângulo 66" width="6.37" height="6.37" transform="translate(89.175 38.218)" fill="#8ac926"/>
      <rect id="Retângulo_67" data-name="Retângulo 67" width="6.37" height="6.37" transform="translate(95.545 38.218)" fill="#1985a1"/>
      <rect id="Retângulo_68" data-name="Retângulo 68" width="6.37" height="6.37" transform="translate(108.284 38.218)" fill="#1985a1"/>
      <rect id="Retângulo_69" data-name="Retângulo 69" width="6.37" height="6.37" transform="translate(6.37 44.588)" fill="#8019b3"/>
      <rect id="Retângulo_70" data-name="Retângulo 70" width="6.37" height="6.37" transform="translate(12.739 44.588)" fill="#8019b3"/>
      <rect id="Retângulo_71" data-name="Retângulo 71" width="6.37" height="6.37" transform="translate(38.218 44.588)" fill="#fb5223"/>
      <rect id="Retângulo_72" data-name="Retângulo 72" width="6.37" height="6.37" transform="translate(44.588 44.588)" fill="#ffc31f"/>
      <rect id="Retângulo_73" data-name="Retângulo 73" width="6.37" height="6.37" transform="translate(50.957 44.588)" fill="#ffc31f"/>
      <rect id="Retângulo_74" data-name="Retângulo 74" width="6.37" height="6.37" transform="translate(76.436 44.588)" fill="#8ac926"/>
      <rect id="Retângulo_75" data-name="Retângulo 75" width="6.37" height="6.37" transform="translate(82.805 44.588)" fill="#8ac926"/>
    </g>
    <path id="Caminho_1" data-name="Caminho 1" d="M578.252,566.362V530.174a15.139,15.139,0,0,1,1.908-7.65,14.072,14.072,0,0,1,5.168-5.249,14.346,14.346,0,0,1,7.394-1.912h16.906v6.918H593.6a7.335,7.335,0,0,0-5.605,2.238,7.926,7.926,0,0,0-2.107,5.656v10.465h23.694v6.37l-23.694-.126v19.479Z" transform="translate(-136.068 0)" fill="#fff"/>
    <path id="Caminho_2" data-name="Caminho 2" d="M756.025,566.362V530.174a15.139,15.139,0,0,1,1.908-7.65,14.072,14.072,0,0,1,5.168-5.249,14.345,14.345,0,0,1,7.394-1.912h16.613v6.918H771.37a7.335,7.335,0,0,0-5.605,2.238,7.926,7.926,0,0,0-2.107,5.656v10.465h23.694v6.37H763.657v19.353Z" transform="translate(-227.594 0)" fill="#fff"/>
    <path id="Caminho_3" data-name="Caminho 3" d="M696.38,524.385a17.645,17.645,0,0,0-6.752-6.477,19.33,19.33,0,0,0-9.421-2.316h-23.16v6.673h22.218a13.258,13.258,0,0,1,6.084,1.413,10.761,10.761,0,0,1,4.4,4.043,12.044,12.044,0,0,1,1.609,6.4,11.86,11.86,0,0,1-1.649,6.359,10.718,10.718,0,0,1-4.4,4.043,13.506,13.506,0,0,1-6.124,1.374h-14.6v-5.139h-7.537v25.612h7.537v-13.8h15.466a19.543,19.543,0,0,0,9.656-2.356,17.634,17.634,0,0,0,6.713-6.516,19.951,19.951,0,0,0-.039-19.313Z" transform="translate(-176.636 -0.118)" fill="#fff"/>
  </g>
</svg>
