<svg id="Componente_24_2" data-name="Componente 24 – 2" xmlns="http://www.w3.org/2000/svg" width="226" height="226" viewBox="0 0 226 226">
  <g id="Retângulo_480" data-name="Retângulo 480" fill="#8019b3" stroke="#707070" stroke-width="1">
    <rect width="226" height="226" stroke="none"/>
    <rect x="0.5" y="0.5" width="225" height="225" fill="none"/>
  </g>
  <g id="Grupo_16" data-name="Grupo 16" transform="translate(131.564 18.564)">
    <g id="Grupo_1" data-name="Grupo 1" transform="translate(0.001 0)">
      <rect id="Retângulo_2" data-name="Retângulo 2" width="23.609" height="23.609" transform="translate(0 0)" fill="#fff"/>
      <rect id="Retângulo_3" data-name="Retângulo 3" width="23.609" height="23.609" transform="translate(23.609 0)" fill="#fff"/>
      <rect id="Retângulo_12" data-name="Retângulo 12" width="23.609" height="23.609" transform="translate(47.218 23.609)" fill="#fff"/>
      <rect id="Retângulo_21" data-name="Retângulo 21" width="23.609" height="23.609" transform="translate(0 47.218)" fill="#fff"/>
      <rect id="Retângulo_22" data-name="Retângulo 22" width="23.609" height="23.609" transform="translate(70.826 47.218)" fill="#fff"/>
      <rect id="Retângulo_40" data-name="Retângulo 40" width="23.609" height="23.609" transform="translate(0 94.435)" fill="#fff"/>
      <rect id="Retângulo_41" data-name="Retângulo 41" width="23.609" height="23.609" transform="translate(23.609 94.435)" fill="#fff"/>
      <rect id="Retângulo_42" data-name="Retângulo 42" width="23.609" height="23.609" transform="translate(47.218 94.435)" fill="#fff"/>
      <rect id="Retângulo_56" data-name="Retângulo 56" width="23.609" height="23.609" transform="translate(0 141.653)" fill="#fff"/>
      <rect id="Retângulo_57" data-name="Retângulo 57" width="23.609" height="23.609" transform="translate(47.218 141.653)" fill="#fff"/>
      <rect id="Retângulo_58" data-name="Retângulo 58" width="23.609" height="23.609" transform="translate(70.826 141.653)" fill="#fff"/>
      <rect id="Retângulo_69" data-name="Retângulo 69" width="23.609" height="23.609" transform="translate(23.609 165.262)" fill="#fff"/>
      <rect id="Retângulo_70" data-name="Retângulo 70" width="23.609" height="23.609" transform="translate(47.218 165.262)" fill="#fff"/>
    </g>
  </g>
</svg>
