<svg xmlns="http://www.w3.org/2000/svg" width="199" height="198" viewBox="0 0 199 198">
  <g id="Group_3" data-name="Group 3" transform="translate(0.272 -0.196)">
    <g id="Oval_2" data-name="Oval 2" transform="translate(-0.272 0.196)" fill="#f3f7f2" stroke="#a7ce98" stroke-miterlimit="10" stroke-width="1">
      <ellipse cx="99.5" cy="99" rx="99.5" ry="99" stroke="none"/>
      <ellipse cx="99.5" cy="99" rx="99" ry="98.5" fill="none"/>
    </g>
    <ellipse id="Oval_2-2" data-name="Oval 2" cx="47.5" cy="48" rx="47.5" ry="48" transform="translate(51.728 51.196)" fill="#529e34"/>
    <path id="Shape" d="M32.614,0A90.021,90.021,0,0,0,12.006,17.562l-7.691-5.97A26.667,26.667,0,0,0,0,15.276L14.008,29.387a.517.517,0,0,0,.4.168.469.469,0,0,0,.108-.009.558.558,0,0,0,.407-.345c2.256-5.716,9.707-17.684,19.221-26.364a.555.555,0,0,0,.135-.624A15.523,15.523,0,0,0,32.614,0Z" transform="translate(81.99 84.85)" fill="#fff"/>
  </g>
</svg>
