<svg xmlns="http://www.w3.org/2000/svg" width="122.076" height="144.746" viewBox="0 0 122.076 144.746">
  <path id="Apple_logo_black" d="M101.83,139.917c-7.851,7.619-16.514,6.432-24.77,2.839-8.778-3.665-16.8-3.9-26.074,0-11.545,4.983-17.672,3.535-24.626-2.839C-12.9,99.5-7.1,37.938,37.513,35.621c10.821.579,18.4,5.983,24.77,6.432,9.474-1.927,18.542-7.446,28.682-6.721q18.274,1.478,27.378,14.442c-25.06,15.065-19.121,48.092,3.9,57.363-4.606,12.1-10.517,24.046-20.425,32.882ZM61.415,35.186C60.241,17.224,74.8,2.449,91.545,1,93.848,21.714,72.713,37.214,61.415,35.186Z" transform="translate(-0.164 -1)"/>
</svg>
