<svg id="twitter" xmlns="http://www.w3.org/2000/svg" width="19.102" height="16.208" viewBox="0 0 19.102 16.208">
  <path id="Shape" d="M19.1,1.918a7.567,7.567,0,0,1-2.25.645A4.084,4.084,0,0,0,18.574.3a7.7,7.7,0,0,1-2.49.994A3.832,3.832,0,0,0,13.224,0,4.009,4.009,0,0,0,9.306,4.092a4.28,4.28,0,0,0,.1.933A10.975,10.975,0,0,1,1.331.748,4.2,4.2,0,0,0,.8,2.805,4.142,4.142,0,0,0,2.544,6.212,3.793,3.793,0,0,1,.769,5.7v.051A4.057,4.057,0,0,0,3.912,9.763a3.81,3.81,0,0,1-1.033.143,3.606,3.606,0,0,1-.738-.076A3.946,3.946,0,0,0,5.8,12.673,7.652,7.652,0,0,1,.935,14.422,7.977,7.977,0,0,1,0,14.366a10.737,10.737,0,0,0,6.006,1.842c7.208,0,11.149-6.237,11.149-11.646l-.013-.53A8.026,8.026,0,0,0,19.1,1.918Z" transform="translate(0 0)" fill="#bababa"/>
</svg>
